<svg id="Calque_1" data-name="Calque 1" xmlns="http://www.w3.org/2000/svg" xmlns:xlink="http://www.w3.org/1999/xlink" viewBox="0 0 2140.18 1498.13"><defs><style>.cls-1{fill:url(#linear-gradient);}.cls-2{opacity:0.2;}.cls-3{fill:#fff;}.cls-4{opacity:0.5;}</style><linearGradient id="linear-gradient" x1="-182" y1="1439.86" x2="2007.49" y2="231.89" gradientUnits="userSpaceOnUse"><stop offset="0.03" stop-color="#fde7cc"/><stop offset="0.2" stop-color="#fffcef"/><stop offset="0.34" stop-color="#fcf9f0"/><stop offset="0.62" stop-color="#fde7cc"/><stop offset="0.99" stop-color="#f9c5b9"/></linearGradient></defs><title>01 03</title><rect class="cls-1" width="2140.18" height="1498.13"/><g class="cls-2"><path class="cls-3" d="M2107.05,603.71a97,97,0,0,0-20.37,2.13c-8.47-32.4-68.48-57.51-141.32-57.51-49.63,0-93.32,11.67-118.8,29.36a81.94,81.94,0,0,0-18.27-2c-25.88,0-46.87,11.37-46.87,25.4,0,0,0,.08,0,.12-32.75,1.22-58.39,12.06-58.39,25.27,0,3,1.43,5.94,3.91,8.63-6.88,3.24-19.75,6.59-41.23,3.78-4.2-4.75-14.8-8.14-27.23-8.14-13.62,0-25,4-28.25,9.51-6.85.81-14.12,1.14-17.73-.38-8-3.36-40.69-8.31-58.38,2.14a64.47,64.47,0,0,1-16,6.87H2108.3V603.73Z" transform="translate(30.4 44.12)"/></g><g class="cls-2"><path class="cls-3" d="M1799.43,278.72c-22.46-21.35-64-11.23-74.15-4.37-4.59,3.11-13.83,2.43-22.54.77-4.1-11.16-18.58-19.42-35.87-19.42-15.81,0-29.27,6.91-34.6,16.62-27.3,5.75-43.64-1.1-52.39-7.71a35.35,35.35,0,0,0,5-17.66c0-27-32.57-49.16-74.17-51.67,0-.08,0-.16,0-.25,0-28.67-26.66-51.92-59.54-51.92a66.8,66.8,0,0,0-23.21,4.1c-32.37-36.17-87.87-60-150.93-60-92.53,0-168.77,51.36-179.53,117.6a78.6,78.6,0,0,0-25.88-4.37c-26.76,0-50,13.14-61.71,32.41h0s-22.72,33-56.43,37.49-60.67,9-60.67,9,2.44,7.5,22,13.48h904.94C1814,290.27,1807.13,286,1799.43,278.72Z" transform="translate(30.4 44.12)"/></g><g class="cls-2"><path class="cls-3" d="M1005.13,404.43c-17.69-14.84-50.41-7.81-58.38-3-3.61,2.17-10.88,1.7-17.73.54-3.23-7.76-14.63-13.5-28.25-13.5-12.44,0-23,4.8-27.23,11.55-21.48,4-34.35-.76-41.23-5.36a22.53,22.53,0,0,0,3.91-12.28c0-18.77-25.64-34.18-58.39-35.92,0-.06,0-.12,0-.18,0-19.93-21-36.1-46.86-36.1A58.67,58.67,0,0,0,712.71,313c-25.48-25.15-69.17-41.74-118.8-41.74-72.83,0-132.85,35.71-141.32,81.77a69.32,69.32,0,0,0-20.37-3c-21.07,0-39.34,9.14-48.58,22.54h0s-17.89,22.95-44.42,26.07-47.75,6.25-47.75,6.25,1.92,5.22,17.33,9.37H1021.1A55.92,55.92,0,0,1,1005.13,404.43Z" transform="translate(30.4 44.12)"/></g><g class="cls-4"><path class="cls-3" d="M396.7,692.28c17.69-10.44,50.41-5.49,58.37-2.14,3.62,1.52,10.89,1.19,17.74.38,3.23-5.46,14.63-9.5,28.24-9.5,12.44,0,23,3.38,27.24,8.13,21.48,2.81,34.34-.53,41.23-3.77-2.48-2.7-3.91-5.6-3.91-8.64,0-13.2,25.64-24,58.38-25.27,0,0,0-.08,0-.12,0-14,21-25.39,46.87-25.39a82,82,0,0,1,18.27,2c25.48-17.69,69.16-29.36,118.8-29.36,72.83,0,132.85,25.12,141.32,57.52A96.21,96.21,0,0,1,969.61,654c21.06,0,39.34,6.43,48.58,15.85h0s17.88,16.14,44.42,18.33,47.75,4.4,47.75,4.4-1.92,3.67-17.33,6.59H380.73A64.09,64.09,0,0,0,396.7,692.28Z" transform="translate(30.4 44.12)"/></g><circle class="cls-3" cx="276.21" cy="430.87" r="115.51"/></svg>