<svg xmlns="http://www.w3.org/2000/svg" viewBox="0 0 2234.41 1215.41"><defs><style>.cls-1{fill:#fff;}.cls-2{fill:#949aa9;}.cls-3{fill:#eaeaea;}.cls-4{fill:#737d93;}.cls-5{fill:none;}.cls-6{fill:#ffed00;}</style></defs><title>01-02</title><g id="Calque_1" data-name="Calque 1"><polygon class="cls-1" points="194.91 781.71 425.39 717.83 424.38 753.02 648.13 648.46 602.85 715.83 698.39 683.34 826.44 616.55 741.72 684.57 911.7 668.27 984.3 610.47 951.1 669.39 1035.62 608.41 998.37 670.73 1162.17 594.4 1292.96 644.33 1396.38 537.67 1261.21 438.75 1369.57 371.4 1183.43 401.33 1139.4 424.73 1103.94 423.72 689.97 563.37 636.12 516.07 584.91 514.61 520.29 569.11 440.2 612.62 124.14 708.58 255.5 730.61 194.91 781.71"/><polygon class="cls-2" points="1162.17 594.4 998.37 670.73 1035.62 608.41 951.1 669.39 984.3 610.47 911.7 668.27 741.72 684.57 826.44 616.55 698.39 683.34 602.85 715.83 648.13 648.46 424.38 753.02 425.39 717.83 194.91 781.71 255.5 730.61 124.14 708.58 90.26 718.87 118.45 912.2 1262.37 952.9 1248.42 889.12 1137.48 769.76 1315.34 753.69 1286.72 650.76 1292.96 644.33 1162.17 594.4"/><path class="cls-3" d="M1608.38,664.57,1816.1,708l195.36-9.94-213.57-89.18L1498.05,431.37l-21.87,29.91-89.58-84.72-50.38-30.78c-98.12,25.16-167.9,108.08-215,191.8l273.91,186.66Z" transform="translate(33.35 25.62)"/><path class="cls-4" d="M2011.46,698.1,1816.1,708l-207.72-43.47-213.27,59.67L1121.2,537.58c-57.77,102.66-81.46,206.5-81.46,206.5L1229,927.28l972-28.59-.62-128.63Z" transform="translate(33.35 25.62)"/><rect class="cls-5" width="2177.17" height="1215.41"/><rect class="cls-6" x="36" y="1008.14" width="2069.83" height="97.48"/></g></svg>