<svg xmlns="http://www.w3.org/2000/svg" xmlns:xlink="http://www.w3.org/1999/xlink" viewBox="0 0 398.85 215.47"><defs><style>.cls-1{fill:url(#Névtelen_színátmenet_85);}.cls-11,.cls-2{fill:#4f1919;}.cls-2{opacity:0.4;}.cls-3{fill:url(#Névtelen_színátmenet_131);}.cls-4{fill:url(#Névtelen_színátmenet_85-2);}.cls-5{fill:url(#Névtelen_színátmenet_131-2);}.cls-6{fill:url(#Névtelen_színátmenet_85-3);}.cls-7{fill:url(#Névtelen_színátmenet_131-3);}.cls-8{fill:url(#Névtelen_színátmenet_85-4);}.cls-9{fill:url(#Névtelen_színátmenet_131-4);}.cls-10{fill:url(#linear-gradient);}.cls-11{opacity:0.6;}</style><linearGradient id="Névtelen_színátmenet_85" x1="8.59" y1="57.51" x2="52.73" y2="142.67" gradientUnits="userSpaceOnUse"><stop offset="0.01" stop-color="#ce4b19"/><stop offset="1" stop-color="#90313e"/></linearGradient><linearGradient id="Névtelen_színátmenet_131" x1="875.38" y1="907.01" x2="902.94" y2="907.01" gradientUnits="userSpaceOnUse"><stop offset="0.01" stop-color="#993a0e"/><stop offset="1" stop-color="#591c22"/></linearGradient><linearGradient id="Névtelen_színátmenet_85-2" x1="79.21" y1="13.77" x2="108.79" y2="70.84" xlink:href="#Névtelen_színátmenet_85"/><linearGradient id="Névtelen_színátmenet_131-2" x1="89.67" y1="3.7" x2="108.14" y2="3.7" xlink:href="#Névtelen_színátmenet_131"/><linearGradient id="Névtelen_színátmenet_85-3" x1="923.39" y1="922.04" x2="967.52" y2="1007.2" gradientTransform="matrix(1, 0, 0, -1, 259.27, 1957.49)" xlink:href="#Névtelen_színátmenet_85"/><linearGradient id="Névtelen_színátmenet_131-3" x1="1198.26" y1="907.01" x2="1225.83" y2="907.01" xlink:href="#Névtelen_színátmenet_131"/><linearGradient id="Névtelen_színátmenet_85-4" x1="994" y1="878.3" x2="1023.58" y2="935.37" gradientTransform="matrix(1, 0, 0, -1, 137.43, 1832.59)" xlink:href="#Névtelen_színátmenet_85"/><linearGradient id="Névtelen_színátmenet_131-4" x1="290.71" y1="3.7" x2="309.18" y2="3.7" xlink:href="#Névtelen_színátmenet_131"/><linearGradient id="linear-gradient" x1="122.43" y1="66.91" x2="207.71" y2="231.45" gradientUnits="userSpaceOnUse"><stop offset="0" stop-color="#5a1420"/><stop offset="0.99" stop-color="#992e0f"/></linearGradient></defs><title>02-01</title><g id="Calque_1" data-name="Calque 1"><rect class="cls-1" x="24.2" y="42.25" width="27.57" height="143.93"/><rect class="cls-2" x="27.47" y="42.25" width="20.39" height="143.93"/><path class="cls-3" d="M902.94,907c0,3-6.17,5.52-13.78,5.52s-13.78-2.47-13.78-5.52,6.17-5.52,13.78-5.52S902.94,904,902.94,907Z" transform="translate(-851.18 -864.53)"/><rect class="cls-4" x="89.67" y="3.54" width="18.47" height="96.45"/><rect class="cls-2" x="91.86" y="3.54" width="13.66" height="96.45"/><ellipse class="cls-5" cx="98.91" cy="3.7" rx="9.24" ry="3.7"/><rect class="cls-6" x="1198.26" y="906.78" width="27.57" height="143.93" transform="translate(1572.92 1092.96) rotate(180)"/><rect class="cls-2" x="1202.17" y="906.78" width="20.39" height="143.93" transform="translate(1573.55 1092.96) rotate(180)"/><path class="cls-7" d="M1198.26,907c0,3,6.18,5.52,13.79,5.52s13.78-2.47,13.78-5.52-6.17-5.52-13.78-5.52S1198.26,904,1198.26,907Z" transform="translate(-851.18 -864.53)"/><rect class="cls-8" x="1141.89" y="868.07" width="18.47" height="96.45" transform="translate(1451.07 968.06) rotate(180)"/><rect class="cls-2" x="1144.51" y="868.07" width="13.66" height="96.45" transform="translate(1451.5 968.06) rotate(180)"/><ellipse class="cls-9" cx="299.95" cy="3.7" rx="9.24" ry="3.7"/><polygon class="cls-10" points="282.31 56.11 217.17 56.11 181.68 56.11 116.54 56.11 0 215.47 3.47 215.47 181.68 215.47 217.17 215.47 395.38 215.47 398.86 215.47 282.31 56.11"/><polygon class="cls-11" points="288.62 64.74 110.23 64.74 108.56 67.02 290.29 67.02 288.62 64.74"/><polygon class="cls-11" points="298.42 78.14 100.43 78.14 98.77 80.42 300.09 80.42 298.42 78.14"/><polygon class="cls-11" points="310.33 94.42 88.53 94.42 86 97.87 312.85 97.87 310.33 94.42"/><polygon class="cls-11" points="324.8 114.21 74.05 114.21 70.36 119.26 328.49 119.26 324.8 114.21"/><polygon class="cls-11" points="346.81 144.3 52.05 144.3 47.39 150.66 351.46 150.66 346.81 144.3"/><polygon class="cls-11" points="375.1 182.99 23.75 182.99 16.52 192.89 382.34 192.89 375.1 182.99"/></g></svg>