<svg xmlns="http://www.w3.org/2000/svg" xmlns:xlink="http://www.w3.org/1999/xlink" viewBox="0 0 2237.87 1563.85"><defs><style>.cls-1{fill:url(#linear-gradient);}.cls-2{fill:#faf6c7;}.cls-3{opacity:0.8;}.cls-4{fill:#f2ebe2;}.cls-5{opacity:0.5;}</style><linearGradient id="linear-gradient" x1="1120.49" x2="1120.49" y2="1563.85" gradientUnits="userSpaceOnUse"><stop offset="0" stop-color="#bf989e"/><stop offset="0.01" stop-color="#c29c9f"/><stop offset="0.07" stop-color="#d4b7a6"/><stop offset="0.12" stop-color="#dfc7aa"/><stop offset="0.17" stop-color="#e3cdac"/><stop offset="0.21" stop-color="#e6d2b0"/><stop offset="0.23" stop-color="#e9d7b5"/><stop offset="0.27" stop-color="#eddebc"/><stop offset="0.37" stop-color="#f1e7c4"/><stop offset="0.54" stop-color="#f2e9c6"/><stop offset="0.78" stop-color="#f4ebd8"/><stop offset="0.99" stop-color="#f5ece1"/></linearGradient></defs><title>03-03</title><g id="Calque_1" data-name="Calque 1"><rect class="cls-1" x="3.69" width="2233.59" height="1563.85"/><path class="cls-2" d="M1902.26,251.36c-120.41,0-218,97.62-218,218s97.63,218,218,218a217.29,217.29,0,0,0,153.19-62.93V314.28A217.32,217.32,0,0,0,1902.26,251.36Z" transform="translate(179.87 38.26)"/><g class="cls-3"><path class="cls-4" d="M1205.6,417.78c-6.2-27.92,40.33-32.58,54.29-12.41,0-24.82,35.68-37.23,49.64-15.51,4.65-31,52.73-71.35,76-32.58,1.55-18.61,18.61-21.71,29.47-4.65,1.55-29.47,54.29-74.45,79.11-41.88,1.55-24.82,29.47-32.57,35.67-6.2,0-10.86,4.74-23.23,18.1-29,11.17-4.85,31.54-11.3,34.64,15.07,31-38.78,102.37-45,110.13,12.41,26.37-10.86,52.74,3.1,41.88,34.12,27.92-20.17,57.39,12.41,60.49,40.33h-3.1c12.41-1.55,41-14,35.67,17.06,37.23-15.51,83.25,23.27,77.56,32.57s-64.51-4.65-97.09-6.2c-57.39-1.55-113.86-9.31-169.7-12.41-96.17-4.65-187.68-9.31-283.85,3.1-27.92,4.66-135,29.47-147.36,7.76" transform="translate(179.87 38.26)"/></g><g class="cls-5"><path class="cls-4" d="M-106.26,121.38c14-21.71,49.64-9.31,49.64,15.51,14-20.16,60.49-15.51,54.29,12.41l-1.55,1.55c-12.41,21.72-119.44-3.1-147.36-7.75-8.12-1-16.2-1.94-24.26-2.75v-60C-150.77,57.16-110.5,93.12-106.26,121.38Z" transform="translate(179.87 38.26)"/></g><path class="cls-4" d="M236.39,437.81c0-.17,0-.34-.08-.51-1.08.21-2.1.39-3,.51Z" transform="translate(179.87 38.26)"/><g class="cls-3"><path class="cls-4" d="M464.55,529.53c-6.21-27.92,40.33-32.57,54.29-12.41,0-24.82,35.67-37.22,49.63-15.51,4.66-31,52.74-71.35,76-32.57,1.55-18.62,18.61-21.72,29.47-4.66,1.55-29.47,54.29-74.45,79.1-41.88,1.56-24.81,29.48-32.57,35.68-6.2,0-10.86,4.74-23.22,18.1-29,11.17-4.85,31.54-11.3,34.64,15.07,31-38.78,102.37-45,110.13,12.41,26.36-10.86,52.73,3.1,41.88,34.12,27.92-20.16,57.39,12.41,60.49,40.33h-3.1c12.41-1.55,41-14,35.67,17.06,37.23-15.51,83.24,23.27,77.56,32.58s-64.52-4.66-97.09-6.21c-57.39-1.55-113.86-9.3-169.7-12.41-96.17-4.65-187.69-9.3-283.85,3.11-27.92,4.65-135,29.47-147.36,7.75" transform="translate(179.87 38.26)"/></g><g class="cls-3"><path class="cls-4" d="M269,454.87c5-28.71-19.18-20.23-32.65-17.57,0,.17.06.34.08.51h-3.11c.93-.12,1.95-.3,3-.51-3.4-27.81-32.67-59.86-60.42-39.82,10.86-31-15.51-45-41.88-34.13-7.75-57.39-79.1-51.18-110.13-12.41C20.78,324.58.42,331-10.75,335.88c-13.37,5.8-18.1,18.17-18.1,29-6.21-26.36-34.13-18.61-35.68,6.21-24.82-32.57-77.55,12.41-79.11,41.88-10.85-17.06-27.92-14-29.47,4.65a38.92,38.92,0,0,0-6.76-8.51v60.05c87.39-8.83,171.55-4.61,259.59-.35,55.84,3.1,112.32,10.86,169.71,12.41,32.57,1.55,91.4,15.51,97.08,6.2S306.19,439.36,269,454.87Z" transform="translate(179.87 38.26)"/></g><g class="cls-5"><path class="cls-4" d="M199.32,266.89c-4.95-16.52,32.22-19.28,43.37-7.34,0-14.69,28.5-22,39.65-9.18,3.72-18.37,42.13-42.23,60.71-19.28,1.24-11,14.87-12.86,23.54-2.76,1.24-17.44,43.37-44.06,63.2-24.78,1.24-14.69,23.54-19.28,28.5-3.68,0-6.42,3.78-13.74,14.46-17.18,8.92-2.87,25.19-6.69,27.67,8.92,24.78-23,81.77-26.62,88,7.34,21.06-6.42,42.13,1.84,33.45,20.2,22.3-11.93,45.85,7.35,48.32,23.87h-2.47c9.91-.92,32.77-8.26,28.5,10.1,29.73-9.18,66.49,13.77,61.95,19.28s-51.54-2.75-77.56-3.67c-45.84-.92-91-5.51-135.56-7.35-76.82-2.75-149.92-5.51-226.75,1.84-22.3,2.75-107.8,17.44-117.71,4.59" transform="translate(179.87 38.26)"/></g><g class="cls-5"><path class="cls-4" d="M1005.87,253.26c-3.38-11.26,22-13.14,29.56-5,0-10,19.42-15,27-6.26,2.54-12.51,28.71-28.78,41.38-13.14.84-7.51,10.14-8.76,16-1.88.85-11.89,29.56-30,43.07-16.89.85-10,16-13.14,19.42-2.5,0-4.38,2.58-9.37,9.86-11.71,6.08-2,17.17-4.56,18.86,6.08,16.89-15.64,55.73-18.15,60,5,14.36-4.38,28.72,1.25,22.8,13.77,15.2-8.14,31.25,5,32.94,16.26h-1.69c6.75-.62,22.33-5.63,19.42,6.89,20.27-6.26,45.32,9.38,42.22,13.13s-35.12-1.87-52.86-2.5c-31.24-.62-62-3.75-92.38-5-52.36-1.88-102.19-3.76-154.54,1.25-15.2,1.88-73.47,11.89-80.22,3.13" transform="translate(179.87 38.26)"/></g></g></svg>