<svg xmlns="http://www.w3.org/2000/svg" viewBox="0 0 2081.96 1165.05"><defs><style>.cls-1{fill:#96bcd3;}.cls-2{fill:#84b3d2;}.cls-3{fill:#7a8275;}.cls-4{opacity:0.6;}.cls-5{fill:#bea46f;}.cls-6{fill:#3c4a3e;}.cls-7{fill:#2b3622;}.cls-8,.cls-9{fill:#1f282b;}.cls-23,.cls-9{opacity:0.8;}.cls-10{fill:#6b7466;}.cls-11{fill:#334439;}.cls-12{fill:#636c57;}.cls-13{fill:#485b4a;}.cls-14{fill:#7d6664;}.cls-15{fill:#8d7977;}.cls-16{fill:#566157;}.cls-17{fill:#49553f;}.cls-18{fill:#313c40;}.cls-19{fill:#92b8d1;}.cls-20{fill:#2a191b;}.cls-21{fill:#39222b;}.cls-22{fill:#243737;}.cls-23{fill:#80a7ba;}.cls-24{fill:#7199a9;opacity:0.7;}.cls-25{fill:#664535;}.cls-26{fill:#7f5744;}.cls-27{fill:#92735c;}.cls-28{fill:#c1dce9;}.cls-28,.cls-29{opacity:0.2;}.cls-29{fill:#eadcd4;}.cls-30{fill:#444f44;}.cls-31{opacity:0.3;}.cls-32{fill:#f2ebe2;}</style></defs><title>03-01</title><g id="Calque_1" data-name="Calque 1"><polygon class="cls-1" points="651.66 625.02 2081.22 625.02 2081.42 1148.18 1097.88 1027.79 651.66 625.02"/><polygon class="cls-2" points="684.14 668.49 1139.31 950.64 2007.8 1145.94 1431.46 1074.65 1097.88 1027.79 684.14 668.49"/><polygon class="cls-3" points="504.78 550.36 2081.42 556.7 2081.22 625.02 651.66 625.02 504.78 550.36"/><g class="cls-4"><polygon class="cls-5" points="56.34 506.31 51.25 509.54 54.99 524.65 60.28 518.15 56.34 506.31"/><polygon class="cls-6" points="39.52 424.78 41.26 469.44 46.25 471.59 39.52 424.78"/><polygon class="cls-5" points="46.19 471.17 48.37 471.58 39.52 424.78 46.19 471.17"/><polygon class="cls-7" points="39.52 424.78 35.94 465.4 41.26 469.44 39.52 424.78"/><polygon class="cls-7" points="37.43 466.53 33.4 491.02 41.97 496.61 41.26 469.11 37.43 466.53"/><polygon class="cls-6" points="49.48 497.99 41.96 496.57 41.26 469.44 44.78 470.94 49.48 497.99"/><polygon class="cls-6" points="41.97 496.26 42.21 509.82 51.25 509.54 49.48 497.99 41.97 496.26"/><polygon class="cls-6" points="42.21 509.82 39.74 527.12 54.99 524.65 51.25 509.54 42.21 509.82"/><polygon class="cls-7" points="33.95 491.38 31.05 504.93 42.44 510.1 41.97 496.26 33.95 491.38"/><polygon class="cls-7" points="32.99 505.8 29.12 519.88 39.74 527.12 42.44 510.1 32.99 505.8"/><polygon class="cls-6" points="39.74 527.12 37.69 544.26 58.87 539.99 54.99 524.65 39.74 527.12"/><polygon class="cls-7" points="30.37 520.58 26.25 535.86 37.69 544.26 39.74 527.12 30.37 520.58"/><polygon class="cls-5" points="58.87 539.99 63.91 533.53 59.94 518.65 54.99 524.65 58.87 539.99"/><polygon class="cls-5" points="44.78 470.94 47.61 471.39 53.19 496.24 49.48 497.99 44.78 470.94"/><polygon class="cls-5" points="49.48 497.99 51.25 509.54 56.58 506.06 53.11 495.88 49.48 497.99"/><polygon class="cls-8" points="37.43 466.53 41.26 469.11 44.78 470.94 47.61 471.39 47.93 472.8 45.16 473.1 41.26 472 37.19 468 37.43 466.53"/><polygon class="cls-8" points="33.95 491.38 41.97 496.26 49.48 497.99 53.11 495.88 53.56 497.21 49.76 499.81 41.92 499.41 33.73 492.35 33.95 491.38"/><polygon class="cls-8" points="32.99 505.8 42.44 509.81 51.25 509.54 56.34 506.31 56.75 507.63 51.69 511.32 42.05 512.58 32.74 506.73 32.99 505.8"/><polygon class="cls-8" points="30.33 520.7 39.74 527.12 54.99 524.65 59.95 518.67 60.28 519.94 55.51 526.69 39.48 529.3 30.08 521.66 30.33 520.7"/><polygon class="cls-9" points="63.91 533.53 58.87 539.99 37.69 544.26 26.25 535.86 25.4 538.29 35.94 548.43 61.35 543.76 63.91 533.53"/></g><g class="cls-4"><polygon class="cls-5" points="114.57 502.22 109.48 505.45 113.22 520.57 118.51 514.06 114.57 502.22"/><polygon class="cls-6" points="97.75 420.69 99.49 465.35 104.48 467.51 97.75 420.69"/><polygon class="cls-5" points="104.42 467.08 106.6 467.49 97.75 420.69 104.42 467.08"/><polygon class="cls-7" points="97.75 420.69 94.17 461.31 99.49 465.35 97.75 420.69"/><polygon class="cls-7" points="95.66 462.45 91.63 486.93 100.2 492.52 99.49 465.02 95.66 462.45"/><polygon class="cls-6" points="107.71 493.9 100.19 492.49 99.49 465.35 103.02 466.85 107.71 493.9"/><polygon class="cls-6" points="100.2 492.18 100.44 505.73 109.48 505.45 107.71 493.9 100.2 492.18"/><polygon class="cls-6" points="100.44 505.73 97.97 523.04 113.22 520.57 109.48 505.45 100.44 505.73"/><polygon class="cls-7" points="92.18 487.29 89.28 500.85 100.67 506.01 100.2 492.18 92.18 487.29"/><polygon class="cls-7" points="91.22 501.72 87.35 515.79 97.97 523.04 100.67 506.01 91.22 501.72"/><polygon class="cls-6" points="97.97 523.04 95.92 540.18 117.1 535.9 113.22 520.57 97.97 523.04"/><polygon class="cls-7" points="88.6 516.49 84.48 531.77 95.92 540.18 97.97 523.04 88.6 516.49"/><polygon class="cls-5" points="117.1 535.9 122.14 529.45 118.17 514.57 113.22 520.57 117.1 535.9"/><polygon class="cls-5" points="103.02 466.85 105.84 467.31 111.42 492.15 107.71 493.9 103.02 466.85"/><polygon class="cls-5" points="107.71 493.9 109.48 505.45 114.81 501.97 111.34 491.79 107.71 493.9"/><polygon class="cls-8" points="95.66 462.45 99.49 465.02 103.02 466.85 105.84 467.31 106.16 468.71 103.39 469.01 99.49 467.91 95.42 463.92 95.66 462.45"/><polygon class="cls-8" points="92.18 487.29 100.2 492.18 107.71 493.9 111.34 491.79 111.79 493.13 107.99 495.73 100.15 495.32 91.96 488.26 92.18 487.29"/><polygon class="cls-8" points="91.22 501.72 100.67 505.73 109.48 505.45 114.57 502.22 114.98 503.54 109.92 507.24 100.28 508.5 90.97 502.65 91.22 501.72"/><polygon class="cls-8" points="88.56 516.62 97.97 523.04 113.22 520.57 118.18 514.59 118.51 515.85 113.74 522.6 97.71 525.22 88.31 517.57 88.56 516.62"/><polygon class="cls-9" points="122.14 529.45 117.1 535.9 95.92 540.18 84.48 531.77 83.63 534.2 94.17 544.34 119.59 539.67 122.14 529.45"/></g><path class="cls-10" d="M-23,786.49H289.86l227.51,20.29L628,865.55s368.16,360.22,467.39,395.88,962.36,127.28,962.36,127.28v16.54H-23Z" transform="translate(23.65 -240.41)"/><path class="cls-11" d="M-22.41,977c22,0,593.32,93.64,709.78,132.44s325.22,204.11,427.33,231,943.62,64.74,943.62,64.74H-22.41V977" transform="translate(23.65 -240.41)"/><polygon class="cls-12" points="455.62 549.76 571.38 575.67 599.81 597.03 306.9 633.8 155.67 603.8 0.69 644.8 0.69 542.74 455.62 549.76"/><path class="cls-13" d="M-23,1193.56v211.57l1062.73-2.22s-165.9-117.37-269.93-134.7-333-85-386.91-123.36c-164.71-117-405.34-67.48-405.34-67.48Z" transform="translate(23.65 -240.41)"/><polygon class="cls-14" points="1376.24 532.85 1397.72 545.69 1408.59 535.09 1414.55 545.69 1420.51 536.78 1427.52 545.69 1433.13 525.7 1442.24 546.87 1451 537.26 1459.06 546.87 1466.78 524.01 1475.89 548.34 1492.93 543.41 1507.43 548.34 1515.5 544 1527.41 553.22 1542.84 558.21 1552.62 565.59 1376.25 564.83 1376.24 532.85"/><g class="cls-4"><polygon class="cls-5" points="317.87 509.38 312.78 512.61 316.52 527.72 321.81 521.22 317.87 509.38"/><polygon class="cls-6" points="301.06 427.85 302.79 472.51 307.78 474.66 301.06 427.85"/><polygon class="cls-5" points="307.72 474.24 309.9 474.65 301.06 427.85 307.72 474.24"/><polygon class="cls-7" points="301.06 427.85 297.47 468.47 302.79 472.51 301.06 427.85"/><polygon class="cls-7" points="298.96 469.6 294.94 494.09 303.5 499.68 302.79 472.18 298.96 469.6"/><polygon class="cls-6" points="311.01 501.06 303.5 499.64 302.79 472.51 306.31 474.01 311.01 501.06"/><polygon class="cls-6" points="303.5 499.33 303.74 512.89 312.78 512.61 311.01 501.06 303.5 499.33"/><polygon class="cls-6" points="303.74 512.89 301.27 530.2 316.52 527.72 312.78 512.61 303.74 512.89"/><polygon class="cls-7" points="295.48 494.45 292.58 508 303.98 513.17 303.5 499.33 295.48 494.45"/><polygon class="cls-7" points="294.52 508.87 290.65 522.95 301.27 530.2 303.98 513.17 294.52 508.87"/><polygon class="cls-6" points="301.27 530.2 299.22 547.33 301 546.08 315.36 546.08 320.4 543.06 316.52 527.72 301.27 530.2"/><polygon class="cls-7" points="291.9 523.65 287.78 538.93 299.22 547.33 301.27 530.2 291.9 523.65"/><polygon class="cls-5" points="320.4 543.06 325.44 536.6 321.47 521.72 316.52 527.72 320.4 543.06"/><polygon class="cls-5" points="306.31 474.01 309.14 474.46 314.72 499.31 311.01 501.06 306.31 474.01"/><polygon class="cls-5" points="311.01 501.06 312.78 512.61 318.11 509.13 314.64 498.95 311.01 501.06"/><polygon class="cls-8" points="298.96 469.6 302.79 472.18 306.31 474.01 309.14 474.46 309.46 475.87 306.69 476.17 302.79 475.07 298.72 471.07 298.96 469.6"/><polygon class="cls-8" points="295.48 494.45 303.5 499.33 311.01 501.06 314.64 498.95 315.09 500.29 311.3 502.88 303.45 502.48 295.26 495.42 295.48 494.45"/><polygon class="cls-8" points="294.52 508.87 303.98 512.88 312.78 512.61 317.87 509.38 318.28 510.7 313.22 514.39 303.58 515.65 294.27 509.81 294.52 508.87"/><polygon class="cls-8" points="291.87 523.77 301.27 530.2 316.52 527.72 321.48 521.74 321.81 523.01 317.04 529.76 301.01 532.37 291.61 524.73 291.87 523.77"/></g><g class="cls-4"><polygon class="cls-5" points="399.36 515.21 393.92 517.8 395.79 533.26 401.83 527.45 399.36 515.21"/><polygon class="cls-6" points="392.58 432.24 388.87 476.78 393.56 479.53 392.58 432.24"/><polygon class="cls-5" points="393.55 479.1 395.67 479.77 392.58 432.24 393.55 479.1"/><polygon class="cls-7" points="392.58 432.24 384.08 472.12 388.87 476.78 392.58 432.24"/><polygon class="cls-7" points="385.43 473.43 378.45 497.25 386.28 503.84 388.91 476.46 385.43 473.43"/><polygon class="cls-6" points="393.56 506.12 386.27 503.81 388.87 476.78 392.19 478.7 393.56 506.12"/><polygon class="cls-6" points="386.32 503.49 384.9 516.98 393.92 517.8 393.56 506.12 386.32 503.49"/><polygon class="cls-6" points="384.9 516.98 380.36 533.86 395.79 533.26 393.92 517.8 384.9 516.98"/><polygon class="cls-7" points="378.95 497.67 374.42 510.77 385.11 517.29 386.32 503.49 378.95 497.67"/><polygon class="cls-7" points="376.25 511.87 370.69 525.37 380.36 533.86 385.11 517.29 376.25 511.87"/><polygon class="cls-6" points="380.36 533.86 376.76 548.49 397.78 548.95 395.79 533.26 380.36 533.86"/><polygon class="cls-7" points="371.85 526.22 365.9 540.88 372.07 548.46 376.76 548.49 380.36 533.86 371.85 526.22"/><polygon class="cls-5" points="397.78 548.95 403.56 543.15 401.43 527.9 395.79 533.26 397.78 548.95"/><polygon class="cls-5" points="392.19 478.7 394.94 479.5 397.45 504.84 393.56 506.12 392.19 478.7"/><polygon class="cls-5" points="393.56 506.12 393.92 517.8 399.63 514.99 397.42 504.47 393.56 506.12"/><polygon class="cls-8" points="385.43 473.43 388.91 476.46 392.19 478.7 394.94 479.5 395.08 480.93 392.3 480.89 388.56 479.32 385.01 474.86 385.43 473.43"/><polygon class="cls-8" points="378.95 497.67 386.32 503.49 393.56 506.12 397.42 504.47 397.71 505.85 393.62 507.96 385.88 506.61 378.61 498.61 378.95 497.67"/><polygon class="cls-8" points="376.25 511.87 385.14 517 393.92 517.8 399.36 515.21 399.6 516.57 394.13 519.63 384.41 519.71 375.88 512.76 376.25 511.87"/><polygon class="cls-8" points="371.8 526.34 380.36 533.86 395.79 533.26 401.44 527.92 401.62 529.22 396.06 535.34 379.83 535.99 371.43 527.26 371.8 526.34"/></g><path class="cls-14" d="M489.23,805.3c.6-.77,9.2-54.93,10.4-53.91s7.2,18.32,7.2,18.32h0l16.82-35.36,6,12.72,5.4-.51s4.2,15.52,4.2,16,3-7.12,3-7.12l5.4,7.88,4.2-8.9,4.21,5.85,13.21-35.37,8.4,29,27.63-74.33L622.73,728l6-12.47,4.2,18.32,6-12,9,20.35,9-29.51,4.21,35.37,7.2-11.45,7.81,8.9,9.61-34.09,11.41,32.31,9-17,10.21,19.34,4.21-8.9,4.2,11.19,4.8-10.69,3.61,9.17,5.4-14.51,5.41,15s6.6-5.85,7.2-5.09,13.21,23.41,13.21,23.41l5.4-8.4s7.82,13.74,7.82,14.26,9-14.76,7.2-14.26l6.61,7.13,4.8-16.28,6.61,11.44,6-8.65,3.6,8.65,6-24.93,10.21,27.22s5.4-10.18,6.6-9.41,7.21,18.07,7.21,18.07l5.41-7.39,3,11.71,4.81-7.13,6,17.05,6-3.82,5.41,3.06,4.8-21.63,8.41,10.18,7.2-37.14,7.21,19.84,6.61-12,8.4,21.37,4.8-4.83,7.21,9.41,5.17,36Z" transform="translate(23.65 -240.41)"/><path class="cls-15" d="M1630.62,808.35c48.58-2.35,25.92-37.65,25.92-37.65h0l7.3-10.89,5.8,8.71,5.21-.35s4.06,10.61,4.06,11,2.9-4.87,2.9-4.87l5.22,5.4,4-6.09,4.06,4,12.75-24.19,8.11,19.84,26.66-50.84,16.81,33.09,5.79-8.53,4.06,12.53,5.79-8.18,8.7,13.92L1792.5,745l4.06,24.19,7-7.83,7.54,6.1,9.27-23.33,11,22.11,8.69-11.67,9.86,13.23,4-6.09,4.06,7.66,4.64-7.31,3.47,6.27,5.22-9.92,5.22,10.26s6.37-4,7-3.48,12.75,16,12.75,16l5.21-5.74s7.54,9.39,7.54,9.75,8.69-10.1,7-9.75l6.37,4.87,4.64-11.14,6.37,7.84,5.8-5.92,3.47,5.92,5.8-17.06,9.85,18.62s5.22-7,6.38-6.44,6.95,12.36,6.95,12.36l5.22-5,2.89,8,4.64-4.88,5.8,11.67,5.8-2.61,5.21,2.08,4.64-14.79,8.11,7,6.95-25.41,7,13.58,6.38-8.18,8.11,14.62,4.63-3.31,10.66,9.27v21Z" transform="translate(23.65 -240.41)"/><polygon class="cls-5" points="361.97 500.03 354.12 505.02 359.89 528.36 368.06 518.32 361.97 500.03"/><polygon class="cls-16" points="336.01 374.12 338.69 443.09 346.39 446.42 336.01 374.12"/><polygon class="cls-5" points="346.3 445.76 349.67 446.39 336.01 374.12 346.3 445.76"/><polygon class="cls-17" points="336.01 374.12 330.47 436.86 338.69 443.09 336.01 374.12"/><polygon class="cls-17" points="332.78 438.6 326.55 476.42 339.79 485.05 338.69 442.59 332.78 438.6"/><polygon class="cls-16" points="351.39 487.18 339.78 485 338.69 443.09 344.13 445.4 351.39 487.18"/><polygon class="cls-16" points="339.79 484.51 340.15 505.46 354.12 505.02 351.39 487.18 339.79 484.51"/><polygon class="cls-16" points="340.15 505.46 336.34 532.18 359.89 528.36 354.12 505.02 340.15 505.46"/><polygon class="cls-17" points="327.4 476.97 322.92 497.91 340.52 505.88 339.79 484.51 327.4 476.97"/><polygon class="cls-17" points="325.92 499.25 319.94 520.99 336.34 532.18 340.52 505.88 325.92 499.25"/><polygon class="cls-16" points="336.34 532.18 333.17 558.64 365.88 552.04 359.89 528.36 336.34 532.18"/><polygon class="cls-17" points="321.87 522.07 315.5 545.66 333.17 558.64 336.34 532.18 321.87 522.07"/><polygon class="cls-5" points="365.88 552.04 373.67 542.08 367.53 519.1 359.89 528.36 365.88 552.04"/><polygon class="cls-5" points="344.13 445.4 348.5 446.12 357.11 484.48 351.39 487.18 344.13 445.4"/><polygon class="cls-5" points="351.39 487.18 354.12 505.02 362.34 499.65 356.98 483.93 351.39 487.18"/><polygon class="cls-18" points="332.78 438.6 338.69 442.59 344.13 445.4 348.5 446.12 348.98 448.28 344.71 448.74 338.69 447.05 332.4 440.88 332.78 438.6"/><polygon class="cls-18" points="327.4 476.97 339.79 484.51 351.39 487.18 356.98 483.93 357.69 485.99 351.82 490 339.7 489.37 327.05 478.47 327.4 476.97"/><polygon class="cls-18" points="325.92 499.25 340.52 505.44 354.12 505.02 361.97 500.03 362.61 502.07 354.8 507.78 339.91 509.72 325.53 500.69 325.92 499.25"/><polygon class="cls-18" points="321.82 522.26 336.34 532.18 359.89 528.36 367.55 519.13 368.06 521.08 360.69 531.5 335.94 535.55 321.42 523.74 321.82 522.26"/><polygon class="cls-18" points="373.67 542.08 365.88 552.04 333.17 558.64 315.5 545.66 314.19 549.42 330.47 565.08 369.72 557.87 373.67 542.08"/><polygon class="cls-5" points="442.44 505.51 434.59 510.5 440.37 533.84 448.54 523.8 442.44 505.51"/><polygon class="cls-16" points="416.48 379.6 419.16 448.57 426.87 451.9 416.48 379.6"/><polygon class="cls-5" points="426.77 451.24 430.14 451.87 416.48 379.6 426.77 451.24"/><polygon class="cls-17" points="416.48 379.6 410.94 442.33 419.16 448.57 416.48 379.6"/><polygon class="cls-17" points="413.25 444.08 407.03 481.9 420.26 490.53 419.16 448.07 413.25 444.08"/><polygon class="cls-16" points="431.86 492.66 420.25 490.48 419.16 448.57 424.6 450.88 431.86 492.66"/><polygon class="cls-16" points="420.26 490 420.63 510.94 434.59 510.5 431.86 492.66 420.26 490"/><polygon class="cls-16" points="420.63 510.94 416.82 537.66 440.37 533.84 434.59 510.5 420.63 510.94"/><polygon class="cls-17" points="407.88 482.45 403.39 503.39 420.99 511.37 420.26 490 407.88 482.45"/><polygon class="cls-17" points="406.39 504.73 400.41 526.47 416.82 537.66 420.99 511.37 406.39 504.73"/><polygon class="cls-16" points="416.82 537.66 413.65 564.13 446.36 557.52 440.37 533.84 416.82 537.66"/><polygon class="cls-17" points="402.34 527.55 395.98 551.14 413.65 564.13 416.82 537.66 402.34 527.55"/><polygon class="cls-5" points="446.36 557.52 454.14 547.56 448.01 524.58 440.37 533.84 446.36 557.52"/><polygon class="cls-5" points="424.6 450.88 428.97 451.6 437.58 489.96 431.86 492.66 424.6 450.88"/><polygon class="cls-5" points="431.86 492.66 434.59 510.5 442.82 505.13 437.46 489.41 431.86 492.66"/><polygon class="cls-18" points="413.25 444.08 419.16 448.07 424.6 450.88 428.97 451.6 429.46 453.76 425.19 454.23 419.16 452.53 412.88 446.36 413.25 444.08"/><polygon class="cls-18" points="407.88 482.45 420.26 490 431.86 492.66 437.46 489.41 438.16 491.47 432.29 495.48 420.18 494.85 407.53 483.95 407.88 482.45"/><polygon class="cls-18" points="406.39 504.73 420.99 510.92 434.59 510.5 442.44 505.51 443.08 507.55 435.27 513.26 420.38 515.2 406 506.17 406.39 504.73"/><polygon class="cls-18" points="402.29 527.75 416.82 537.66 440.37 533.84 448.02 524.61 448.54 526.56 441.17 536.98 416.41 541.03 401.89 529.22 402.29 527.75"/><polygon class="cls-18" points="454.14 547.56 446.36 557.52 413.65 564.13 395.98 551.14 394.66 554.9 410.94 570.56 450.2 563.35 454.14 547.56"/><polygon class="cls-5" points="768.75 589.93 763.27 593.41 767.3 609.68 773 602.68 768.75 589.93"/><polygon class="cls-16" points="750.64 502.12 752.51 550.22 757.89 552.54 750.64 502.12"/><polygon class="cls-5" points="757.82 552.08 760.17 552.52 750.64 502.12 757.82 552.08"/><polygon class="cls-17" points="750.64 502.12 746.78 545.87 752.51 550.22 750.64 502.12"/><polygon class="cls-17" points="748.39 547.09 744.05 573.46 753.28 579.48 752.51 549.87 748.39 547.09"/><polygon class="cls-16" points="761.37 580.97 753.27 579.45 752.51 550.22 756.31 551.83 761.37 580.97"/><polygon class="cls-16" points="753.28 579.11 753.53 593.71 763.27 593.41 761.37 580.97 753.28 579.11"/><polygon class="cls-16" points="753.53 593.71 750.88 612.35 767.3 609.68 763.27 593.41 753.53 593.71"/><polygon class="cls-17" points="744.64 573.85 741.52 588.45 753.79 594.01 753.28 579.11 744.64 573.85"/><polygon class="cls-17" points="743.61 589.38 739.44 604.54 750.88 612.35 753.79 594.01 743.61 589.38"/><polygon class="cls-16" points="750.88 612.35 748.67 630.8 771.48 626.2 767.3 609.68 750.88 612.35"/><polygon class="cls-17" points="740.78 605.29 736.35 621.75 748.67 630.8 750.88 612.35 740.78 605.29"/><polygon class="cls-5" points="771.48 626.2 776.91 619.25 772.63 603.22 767.3 609.68 771.48 626.2"/><polygon class="cls-5" points="756.31 551.83 759.36 552.33 765.36 579.08 761.37 580.97 756.31 551.83"/><polygon class="cls-5" points="761.37 580.97 763.27 593.41 769.01 589.66 765.27 578.69 761.37 580.97"/><polygon class="cls-18" points="748.39 547.09 752.51 549.87 756.31 551.83 759.36 552.33 759.7 553.83 756.72 554.16 752.51 552.98 748.13 548.68 748.39 547.09"/><polygon class="cls-18" points="744.64 573.85 753.28 579.11 761.37 580.97 765.27 578.69 765.76 580.13 761.67 582.93 753.22 582.49 744.4 574.89 744.64 573.85"/><polygon class="cls-18" points="743.61 589.38 753.79 593.7 763.27 593.41 768.75 589.93 769.19 591.35 763.75 595.33 753.37 596.68 743.34 590.39 743.61 589.38"/><polygon class="cls-18" points="740.75 605.43 750.88 612.35 767.3 609.68 772.64 603.24 773 604.61 767.86 611.87 750.6 614.69 740.47 606.46 740.75 605.43"/><polygon class="cls-18" points="776.91 619.25 771.48 626.2 748.67 630.8 736.35 621.75 735.43 624.37 746.78 635.29 774.16 630.26 776.91 619.25"/><polygon class="cls-5" points="562.83 527.26 555.52 531.91 560.9 553.62 568.5 544.28 562.83 527.26"/><polygon class="cls-16" points="538.67 410.11 541.17 474.28 548.34 477.38 538.67 410.11"/><polygon class="cls-5" points="548.25 476.76 551.39 477.35 538.67 410.11 548.25 476.76"/><polygon class="cls-17" points="538.67 410.11 533.52 468.48 541.17 474.28 538.67 410.11"/><polygon class="cls-17" points="535.67 470.11 529.88 505.29 542.2 513.32 541.17 473.81 535.67 470.11"/><polygon class="cls-16" points="552.99 515.3 542.18 513.28 541.17 474.28 546.23 476.43 552.99 515.3"/><polygon class="cls-16" points="542.2 512.83 542.53 532.31 555.52 531.91 552.99 515.3 542.2 512.83"/><polygon class="cls-16" points="542.53 532.31 538.99 557.18 560.9 553.62 555.52 531.91 542.53 532.31"/><polygon class="cls-17" points="530.67 505.81 526.5 525.29 542.87 532.71 542.2 512.83 530.67 505.81"/><polygon class="cls-17" points="529.29 526.54 523.72 546.76 538.99 557.18 542.87 532.71 529.29 526.54"/><polygon class="cls-16" points="538.99 557.18 536.04 581.8 566.47 575.66 560.9 553.62 538.99 557.18"/><polygon class="cls-17" points="525.52 547.77 519.6 569.72 536.04 581.8 538.99 557.18 525.52 547.77"/><polygon class="cls-5" points="566.47 575.66 573.72 566.39 568.01 545 560.9 553.62 566.47 575.66"/><polygon class="cls-5" points="546.23 476.43 550.3 477.1 558.31 512.8 552.99 515.3 546.23 476.43"/><polygon class="cls-5" points="552.99 515.3 555.52 531.91 563.18 526.91 558.19 512.28 552.99 515.3"/><polygon class="cls-18" points="535.67 470.11 541.17 473.81 546.23 476.43 550.3 477.1 550.75 479.11 546.77 479.54 541.17 477.96 535.32 472.22 535.67 470.11"/><polygon class="cls-18" points="530.67 505.81 542.2 512.83 552.99 515.3 558.19 512.28 558.85 514.19 553.39 517.93 542.11 517.35 530.34 507.2 530.67 505.81"/><polygon class="cls-18" points="529.29 526.54 542.87 532.3 555.52 531.91 562.83 527.26 563.42 529.16 556.16 534.47 542.3 536.28 528.92 527.88 529.29 526.54"/><polygon class="cls-18" points="525.47 547.95 538.99 557.18 560.9 553.62 568.02 545.03 568.5 546.85 561.64 556.55 538.61 560.31 525.1 549.32 525.47 547.95"/><polygon class="cls-18" points="573.72 566.39 566.47 575.66 536.04 581.8 519.6 569.72 518.37 573.22 533.52 587.79 570.04 581.08 573.72 566.39"/><polygon class="cls-5" points="740.73 595.68 734.15 599.87 738.99 619.42 745.83 611 740.73 595.68"/><polygon class="cls-16" points="718.97 490.19 721.22 547.97 727.68 550.76 718.97 490.19"/><polygon class="cls-5" points="727.6 550.2 730.42 550.74 718.97 490.19 727.6 550.2"/><polygon class="cls-17" points="718.97 490.19 714.33 542.75 721.22 547.97 718.97 490.19"/><polygon class="cls-17" points="716.27 544.22 711.05 575.9 722.14 583.13 721.22 547.55 716.27 544.22"/><polygon class="cls-16" points="731.86 584.91 722.13 583.09 721.22 547.97 725.78 549.91 731.86 584.91"/><polygon class="cls-16" points="722.14 582.68 722.45 600.23 734.15 599.87 731.86 584.91 722.14 582.68"/><polygon class="cls-16" points="722.45 600.23 719.26 622.62 738.99 619.42 734.15 599.87 722.45 600.23"/><polygon class="cls-17" points="711.76 576.36 708 593.9 722.75 600.59 722.14 582.68 711.76 576.36"/><polygon class="cls-17" points="710.52 595.03 705.51 613.24 719.26 622.62 722.75 600.59 710.52 595.03"/><polygon class="cls-16" points="719.26 622.62 716.6 644.8 744.01 639.26 738.99 619.42 719.26 622.62"/><polygon class="cls-17" points="707.13 614.15 701.79 633.92 716.6 644.8 719.26 622.62 707.13 614.15"/><polygon class="cls-5" points="744.01 639.26 750.53 630.91 745.39 611.65 738.99 619.42 744.01 639.26"/><polygon class="cls-5" points="725.78 549.91 729.44 550.51 736.65 582.65 731.86 584.91 725.78 549.91"/><polygon class="cls-5" points="731.86 584.91 734.15 599.87 741.04 595.36 736.55 582.18 731.86 584.91"/><polygon class="cls-18" points="716.27 544.22 721.22 547.55 725.78 549.91 729.44 550.51 729.85 552.32 726.27 552.71 721.22 551.29 715.95 546.12 716.27 544.22"/><polygon class="cls-18" points="711.76 576.36 722.14 582.68 731.86 584.91 736.55 582.18 737.14 583.91 732.22 587.28 722.07 586.75 711.47 577.62 711.76 576.36"/><polygon class="cls-18" points="710.52 595.03 722.75 600.21 734.15 599.87 740.73 595.68 741.26 597.39 734.72 602.17 722.24 603.8 710.19 596.23 710.52 595.03"/><polygon class="cls-18" points="707.08 614.31 719.26 622.62 738.99 619.42 745.4 611.68 745.83 613.32 739.66 622.05 718.92 625.44 706.75 615.55 707.08 614.31"/><polygon class="cls-18" points="750.53 630.91 744.01 639.26 716.6 644.8 701.79 633.92 700.69 637.06 714.33 650.18 747.22 644.14 750.53 630.91"/><polygon class="cls-14" points="1514.48 532.16 1535.96 545 1546.83 534.41 1552.79 545 1558.75 536.09 1565.76 545 1571.37 525.01 1580.48 546.18 1589.24 536.57 1597.3 546.18 1605.02 523.33 1614.13 547.65 1631.17 542.72 1645.67 547.65 1653.74 543.32 1672.02 533.99 1682.13 528.68 1704.51 568.92 1516.2 565.59 1514.48 532.16"/><polygon class="cls-5" points="97.17 502.6 89.32 507.6 95.1 530.93 103.27 520.89 97.17 502.6"/><polygon class="cls-16" points="71.21 376.7 73.9 445.67 81.6 449 71.21 376.7"/><polygon class="cls-5" points="81.5 448.33 84.88 448.96 71.21 376.7 81.5 448.33"/><polygon class="cls-17" points="71.21 376.7 65.68 439.43 73.9 445.67 71.21 376.7"/><polygon class="cls-17" points="67.98 441.18 61.76 478.99 75 487.63 73.9 445.16 67.98 441.18"/><polygon class="cls-16" points="86.59 489.75 74.98 487.57 73.9 445.67 79.33 447.98 86.59 489.75"/><polygon class="cls-16" points="75 487.09 75.36 508.03 89.32 507.6 86.59 489.75 75 487.09"/><polygon class="cls-16" points="75.36 508.03 71.55 534.75 95.1 530.93 89.32 507.6 75.36 508.03"/><polygon class="cls-17" points="62.61 479.55 58.12 500.48 75.72 508.46 75 487.09 62.61 479.55"/><polygon class="cls-17" points="61.13 501.82 55.15 523.56 71.55 534.75 75.72 508.46 61.13 501.82"/><polygon class="cls-16" points="71.55 534.75 68.38 561.22 101.09 554.62 95.1 530.93 71.55 534.75"/><polygon class="cls-17" points="57.07 524.64 50.71 548.24 68.38 561.22 71.55 534.75 57.07 524.64"/><polygon class="cls-5" points="101.09 554.62 108.87 544.65 102.74 521.67 95.1 530.93 101.09 554.62"/><polygon class="cls-5" points="79.33 447.98 83.7 448.69 92.31 487.06 86.59 489.75 79.33 447.98"/><polygon class="cls-5" points="86.59 489.75 89.32 507.6 97.55 502.22 92.19 486.5 86.59 489.75"/><polygon class="cls-18" points="67.98 441.18 73.9 445.16 79.33 447.98 83.7 448.69 84.19 450.85 79.92 451.32 73.9 449.62 67.61 443.45 67.98 441.18"/><polygon class="cls-18" points="62.61 479.55 75 487.09 86.59 489.75 92.19 486.5 92.89 488.56 87.03 492.57 74.91 491.95 62.26 481.05 62.61 479.55"/><polygon class="cls-18" points="61.13 501.82 75.72 508.01 89.32 507.6 97.17 502.6 97.81 504.64 90.01 510.35 75.11 512.29 60.73 503.27 61.13 501.82"/><polygon class="cls-18" points="57.02 524.84 71.55 534.75 95.1 530.93 102.75 521.7 103.27 523.66 95.9 534.08 71.14 538.12 56.63 526.31 57.02 524.84"/><polygon class="cls-18" points="108.87 544.65 101.09 554.62 68.38 561.22 50.71 548.24 49.4 551.99 65.68 567.65 104.93 560.44 108.87 544.65"/><polygon class="cls-5" points="155.03 496.96 147.18 501.95 152.96 525.29 161.13 515.25 155.03 496.96"/><polygon class="cls-16" points="129.07 371.05 131.75 440.02 139.46 443.35 129.07 371.05"/><polygon class="cls-5" points="139.36 442.69 142.73 443.32 129.07 371.05 139.36 442.69"/><polygon class="cls-17" points="129.07 371.05 123.53 433.78 131.75 440.02 129.07 371.05"/><polygon class="cls-17" points="125.84 435.53 119.62 473.35 132.85 481.98 131.75 439.52 125.84 435.53"/><polygon class="cls-16" points="144.45 484.11 132.84 481.93 131.75 440.02 137.19 442.33 144.45 484.11"/><polygon class="cls-16" points="132.85 481.44 133.22 502.38 147.18 501.95 144.45 484.11 132.85 481.44"/><polygon class="cls-16" points="133.22 502.38 129.41 529.11 152.96 525.29 147.18 501.95 133.22 502.38"/><polygon class="cls-17" points="120.47 473.9 115.98 494.84 133.58 502.81 132.85 481.44 120.47 473.9"/><polygon class="cls-17" points="118.98 496.18 113 517.92 129.41 529.11 133.58 502.81 118.98 496.18"/><polygon class="cls-16" points="129.41 529.11 126.23 555.58 158.95 548.97 152.96 525.29 129.41 529.11"/><polygon class="cls-17" points="114.93 519 108.57 542.59 126.23 555.58 129.41 529.11 114.93 519"/><polygon class="cls-5" points="158.95 548.97 166.73 539.01 160.59 516.02 152.96 525.29 158.95 548.97"/><polygon class="cls-5" points="137.19 442.33 141.56 443.05 150.17 481.41 144.45 484.11 137.19 442.33"/><polygon class="cls-5" points="144.45 484.11 147.18 501.95 155.41 496.58 150.05 480.86 144.45 484.11"/><polygon class="cls-18" points="125.84 435.53 131.75 439.52 137.19 442.33 141.56 443.05 142.05 445.21 137.77 445.67 131.75 443.98 125.47 437.81 125.84 435.53"/><polygon class="cls-18" points="120.47 473.9 132.85 481.44 144.45 484.11 150.05 480.86 150.75 482.92 144.88 486.93 132.76 486.3 120.12 475.4 120.47 473.9"/><polygon class="cls-18" points="118.98 496.18 133.58 502.37 147.18 501.95 155.03 496.96 155.67 499 147.86 504.7 132.97 506.65 118.59 497.62 118.98 496.18"/><polygon class="cls-18" points="114.88 519.19 129.41 529.11 152.96 525.29 160.61 516.06 161.13 518.01 153.75 528.43 129 532.48 114.48 520.67 114.88 519.19"/><polygon class="cls-18" points="166.73 539.01 158.95 548.97 126.23 555.58 108.57 542.59 107.25 546.35 123.53 562.01 162.78 554.8 166.73 539.01"/><polygon class="cls-5" points="29.56 511.07 21.71 516.06 27.49 539.4 35.66 529.36 29.56 511.07"/><polygon class="cls-16" points="3.6 385.17 6.29 454.13 13.99 457.46 3.6 385.17"/><polygon class="cls-5" points="13.89 456.8 17.27 457.43 3.6 385.17 13.89 456.8"/><polygon class="cls-17" points="3.6 385.17 1 414.61 1 450.13 6.29 454.13 3.6 385.17"/><polygon class="cls-17" points="6.29 453.63 1 450.07 1 491.93 7.38 496.1 6.29 453.63"/><polygon class="cls-16" points="18.98 498.22 7.37 496.04 6.29 454.13 11.72 456.45 18.98 498.22"/><polygon class="cls-16" points="7.38 495.56 7.75 516.5 21.71 516.06 18.98 498.22 7.38 495.56"/><polygon class="cls-16" points="7.75 516.5 3.94 543.22 27.49 539.4 21.71 516.06 7.75 516.5"/><polygon class="cls-17" points="7.38 495.56 1 491.67 1 513.71 8.11 516.93 7.38 495.56"/><polygon class="cls-17" points="8.11 516.93 1 513.7 1 541.22 3.94 543.22 8.11 516.93"/><polygon class="cls-16" points="0.77 569.69 1 569.64 1 567.72 0.77 569.69"/><polygon class="cls-16" points="27.49 539.4 3.94 543.22 1 567.72 1 569.64 33.48 563.09 27.49 539.4"/><polygon class="cls-17" points="1 541.17 1 567.72 3.94 543.22 1 541.17"/><polygon class="cls-5" points="33.48 563.09 41.26 553.12 35.13 530.14 27.49 539.4 33.48 563.09"/><polygon class="cls-5" points="11.72 456.45 16.09 457.16 24.7 495.53 18.98 498.22 11.72 456.45"/><polygon class="cls-5" points="18.98 498.22 21.71 516.06 29.94 510.69 24.58 494.97 18.98 498.22"/><polygon class="cls-18" points="16.09 457.16 11.72 456.45 6.29 453.63 1 450.07 1 452.9 6.29 458.09 12.31 459.79 16.58 459.32 16.09 457.16"/><polygon class="cls-18" points="0.37 449.65 0 451.92 1 452.9 1 450.07 0.37 449.65"/><polygon class="cls-18" points="24.58 494.97 18.98 498.22 7.38 495.56 1 491.67 1 494.99 7.3 500.42 19.41 501.05 25.28 497.03 24.58 494.97"/><polygon class="cls-18" points="29.56 511.07 21.71 516.06 8.11 516.49 1 513.47 1 516.68 7.5 520.76 22.39 518.82 30.2 513.11 29.56 511.07"/><polygon class="cls-18" points="35.14 530.17 27.49 539.4 3.94 543.22 1 541.22 1 544.53 3.54 546.59 28.29 542.54 35.66 532.13 35.14 530.17"/><polygon class="cls-18" points="41.26 553.12 33.48 563.09 1 569.64 1 575.58 37.32 568.91 41.26 553.12"/><path class="cls-14" d="M910.59,805c.61-.76,12.62-47.07,13.82-46.05s7.2,18.32,7.2,18.32h0l16.82-35.36,6,12.72,5.41-.51s4.2,15.52,4.2,16,3-7.12,3-7.12l5.41,7.88,4.2-8.9,4.21,5.85,13.21-35.36,8.4,29,27.63-74.33,17.41,48.38,6-12.47,4.2,18.32,6-12,9,20.36,9-29.52,4.21,35.37,7.2-11.45,7.81,8.9,9.61-34.09L1122,751.3l9-17,10.21,19.34,4.2-8.9,4.21,11.19,4.8-10.68,3.6,9.16,5.41-14.51,5.41,15s6.6-5.85,7.2-5.08,13.21,23.4,13.21,23.4l5.4-8.4s7.82,13.74,7.82,14.26,9-14.76,7.2-14.26l6.61,7.13,4.8-16.28,6.6,11.45,6-8.66,3.6,8.66,6-24.94,10.2,27.22s5.41-10.18,6.61-9.41S1267.3,778,1267.3,778l5.41-7.39,3,11.71,4.81-7.13,6,17,6-3.81,5.4,3,4.81-21.63,8.4,10.18,7.21-37.14,7.21,19.84,6.6-12,8.41,21.37,4.8-4.83,7.21,9.41,7.29,28.56Z" transform="translate(23.65 -240.41)"/><polygon class="cls-5" points="335.75 668.49 294.06 695.02 324.75 818.91 368.11 765.6 335.75 668.49"/><polygon class="cls-6" points="197.91 0 212.15 366.18 253.06 383.86 197.91 0"/><polygon class="cls-5" points="252.55 380.35 270.45 383.71 197.91 0 252.55 380.35"/><polygon class="cls-7" points="197.91 0 168.51 333.06 212.15 366.18 197.91 0"/><polygon class="cls-7" points="180.77 342.36 147.72 543.15 218 588.98 212.15 363.5 180.77 342.36"/><polygon class="cls-6" points="279.57 600.26 217.92 588.7 212.15 366.18 241.04 378.46 279.57 600.26"/><polygon class="cls-6" points="218 586.13 219.93 697.3 294.06 695.02 279.57 600.26 218 586.13"/><polygon class="cls-6" points="219.93 697.3 199.69 839.19 324.75 818.91 294.06 695.02 219.93 697.3"/><polygon class="cls-7" points="152.22 546.08 128.42 657.24 221.85 699.58 218 586.13 152.22 546.08"/><polygon class="cls-7" points="144.36 664.37 112.6 779.77 199.69 839.19 221.85 699.58 144.36 664.37"/><polygon class="cls-6" points="199.69 839.19 182.86 979.72 356.54 944.66 324.75 818.91 199.69 839.19"/><polygon class="cls-7" points="122.84 785.52 89.03 910.79 182.86 979.72 199.69 839.19 122.84 785.52"/><polygon class="cls-5" points="356.54 944.66 397.86 891.76 365.29 769.73 324.75 818.91 356.54 944.66"/><polygon class="cls-5" points="241.04 378.46 264.24 382.26 309.95 585.96 279.57 600.26 241.04 378.46"/><polygon class="cls-5" points="279.57 600.26 294.06 695.02 337.74 666.47 309.29 583 279.57 600.26"/><polygon class="cls-8" points="180.77 342.36 212.15 363.5 241.04 378.46 264.24 382.26 266.81 393.73 244.13 396.2 212.15 387.19 178.78 354.42 180.77 342.36"/><polygon class="cls-8" points="152.22 546.08 218 586.13 279.57 600.26 309.29 583 313.01 593.93 281.86 615.25 217.52 611.92 150.37 554.04 152.22 546.08"/><polygon class="cls-8" points="144.36 664.37 221.85 697.24 294.06 695.02 335.75 668.49 339.13 679.33 297.69 709.64 218.62 719.97 142.26 672.02 144.36 664.37"/><polygon class="cls-8" points="122.56 786.57 199.69 839.19 324.75 818.91 365.39 769.9 368.11 780.29 328.97 835.6 197.55 857.07 120.45 794.39 122.56 786.57"/><polygon class="cls-9" points="397.86 891.76 356.54 944.66 182.86 979.72 89.03 910.79 82.07 930.73 168.51 1013.88 349.41 977.3 397.86 891.76"/><path class="cls-19" d="M648.5,883.92c10.56,1,578.09,258,578.09,258l829.91,49.16-.71,207.73-940.13-207.73L684.5,923.78Z" transform="translate(23.65 -240.41)"/><path class="cls-20" d="M28,1325.63,49.08,1405H59.15S55.79,1323.71,28,1325.63Z" transform="translate(23.65 -240.41)"/><path class="cls-21" d="M49,1405.1H38.18s-34.9-65.68-10.34-79.65Z" transform="translate(23.65 -240.41)"/><path class="cls-20" d="M32.3,1405.23S-10.21,1360,2.44,1368.52c16.51,11.08,35.64,36.71,35.64,36.71Z" transform="translate(23.65 -240.41)"/><path class="cls-22" d="M2012.44,1192.92l9.47,4.73c-17.37,0-36.32-6.31-53.69,0-23.68,7.9-11,18.95-20.53,28.43-12.63,11.05-93.16-3.16-33.16,25.26-23.68,4.74-124.74,7.9-80.53,44.21-34.73,11.06-79,4.74-112.11,23.69,3.16,7.89,1.58,11,11,14.21-14.21,0-124.74,0-75.79,28.43-22.11,4.73-69.48-4.74-85.27,15.79-20.53,23.68,10.87,25.47,29.82,27h456.07v-217C2045.38,1183.59,2031.6,1181.36,2012.44,1192.92Z" transform="translate(23.65 -240.41)"/><path class="cls-8" d="M2022.58,1312.88c-24.2,5.82-50.52-1.16-74.74-4.65-8.42-1.16-34.73-9.29-42.1,0-7.37,10.47,9.47,23.25-4.22,33.72-12.63,10.46-52.63,1.16-69.47,4.64-19,2.33-51.16,9.34-63.17,25.57-27,36.47,105.27,32.54,125.28,32.54h163.61v-112A80.37,80.37,0,0,1,2022.58,1312.88Z" transform="translate(23.65 -240.41)"/><path class="cls-21" d="M1894.12,1305.9c-5.66-8.12-21.88-26.6-21.88-26.6s54.66,40.64,61.91,125.68H1929C1929.86,1390,1927.46,1353.71,1894.12,1305.9Z" transform="translate(23.65 -240.41)"/><path class="cls-20" d="M1875.3,1338.5l42.34,66.48h-17.27C1883.41,1384.81,1860.6,1352.43,1875.3,1338.5Z" transform="translate(23.65 -240.41)"/><path class="cls-21" d="M1875.24,1338.27c28-9,53.9,60.28,56.24,66.71h-13.74Z" transform="translate(23.65 -240.41)"/><path class="cls-20" d="M1975.91,1358c10.41,9.86-6.36,33.1-18.17,47H1946Z" transform="translate(23.65 -240.41)"/><path class="cls-21" d="M1936.91,1404.39s18.69-53.05,39-46.53l-30,47.12h-8.47Z" transform="translate(23.65 -240.41)"/><path class="cls-20" d="M2006.33,1366.27c12.44-8.34-23.89,30.77-31.31,38.71h-6.57C1972.9,1399.21,1990.68,1376.77,2006.33,1366.27Z" transform="translate(23.65 -240.41)"/><path class="cls-20" d="M71.7,1199.25l-1.2-.91A1.43,1.43,0,0,0,71.7,1199.25Z" transform="translate(23.65 -240.41)"/><polygon class="cls-6" points="850.64 681.02 863.09 1001.12 898.85 1016.57 850.64 681.02"/><polygon class="cls-5" points="898.41 1013.5 914.05 1016.44 850.64 681.02 898.41 1013.5"/><polygon class="cls-7" points="850.64 681.02 824.95 972.17 863.09 1001.12 850.64 681.02"/><polygon class="cls-7" points="863.09 998.77 835.65 980.29 806.77 1155.81 820.44 1164.72 867.39 1164.72 863.09 998.77"/><polygon class="cls-6" points="888.35 1011.85 863.09 1001.12 867.33 1164.72 914.9 1164.72 888.35 1011.85"/><polygon class="cls-7" points="810.7 1158.38 809.35 1164.72 821.12 1164.72 810.7 1158.38"/><polygon class="cls-5" points="908.62 1015.17 888.35 1011.85 914.9 1164.72 942.18 1164.72 908.62 1015.17"/><polygon class="cls-8" points="835.65 980.29 863.09 998.77 888.35 1011.85 908.62 1015.17 910.87 1025.2 891.04 1027.36 863.09 1019.48 833.92 990.84 835.65 980.29"/><polygon class="cls-8" points="810.7 1158.38 809.23 1164.72 821.12 1164.72 810.7 1158.38"/><path class="cls-23" d="M1473.32,1280.74c-.67,4.56-11.21,6.81-23.55,5s-21.81-7-21.15-11.52,11.21-6.81,23.55-5S1474,1276.17,1473.32,1280.74Z" transform="translate(23.65 -240.41)"/><path class="cls-23" d="M1502.82,1239.43c-.33,2.29-7.31,3.16-15.6,2s-14.73-4-14.39-6.31,7.31-3.16,15.59-2S1503.16,1237.15,1502.82,1239.43Z" transform="translate(23.65 -240.41)"/><path class="cls-23" d="M1422.82,1263.62c-.33,2.28-7.32,3.15-15.6,2s-14.73-4-14.4-6.32,7.32-3.16,15.6-2S1423.15,1261.33,1422.82,1263.62Z" transform="translate(23.65 -240.41)"/><polygon class="cls-5" points="732.35 689.42 699 710.64 723.55 809.77 758.24 767.11 732.35 689.42"/><polygon class="cls-6" points="622.07 154.59 633.46 447.56 666.19 461.7 622.07 154.59"/><polygon class="cls-5" points="665.79 458.89 680.11 461.58 622.07 154.59 665.79 458.89"/><polygon class="cls-7" points="622.07 154.59 598.55 421.06 633.46 447.56 622.07 154.59"/><polygon class="cls-7" points="608.35 428.5 581.91 589.14 638.14 625.8 633.46 445.41 608.35 428.5"/><polygon class="cls-6" points="687.4 634.83 638.08 625.58 633.46 447.56 656.58 457.38 687.4 634.83"/><polygon class="cls-6" points="638.14 623.53 639.68 712.47 699 710.64 687.4 634.83 638.14 623.53"/><polygon class="cls-6" points="639.68 712.47 623.49 826 723.55 809.77 699 710.64 639.68 712.47"/><polygon class="cls-7" points="585.52 591.49 566.47 680.42 641.22 714.3 638.14 623.53 585.52 591.49"/><polygon class="cls-7" points="579.23 686.13 553.82 778.46 623.49 826 641.22 714.3 579.23 686.13"/><polygon class="cls-6" points="623.49 826 610.03 938.42 748.98 910.37 723.55 809.77 623.49 826"/><polygon class="cls-7" points="562.01 783.06 534.96 883.27 610.03 938.42 623.49 826 562.01 783.06"/><polygon class="cls-5" points="748.98 910.37 782.04 868.05 755.98 770.42 723.55 809.77 748.98 910.37"/><polygon class="cls-5" points="656.58 457.38 675.13 460.42 711.71 623.39 687.4 634.83 656.58 457.38"/><polygon class="cls-5" points="687.4 634.83 699 710.64 733.94 687.8 711.17 621.02 687.4 634.83"/><polygon class="cls-8" points="608.35 428.5 633.46 445.41 656.58 457.38 675.13 460.42 677.19 469.6 659.04 471.57 633.46 464.36 606.76 438.15 608.35 428.5"/><polygon class="cls-8" points="585.52 591.49 638.14 623.53 687.4 634.83 711.17 621.02 714.15 629.77 689.24 646.82 637.76 644.16 584.03 597.85 585.52 591.49"/><polygon class="cls-8" points="579.23 686.13 641.22 712.42 699 710.64 732.35 689.42 735.06 698.09 701.89 722.35 638.64 730.6 577.54 692.24 579.23 686.13"/><polygon class="cls-8" points="561.78 783.89 623.49 826 723.55 809.77 756.06 770.55 758.24 778.87 726.92 823.12 621.78 840.3 560.09 790.15 561.78 783.89"/><polygon class="cls-9" points="782.04 868.05 748.98 910.37 610.03 938.42 534.96 883.27 529.39 899.22 604.02 960.46 743.74 931.55 782.04 868.05"/><path class="cls-24" d="M1772.22,1273.84c0,2.63-9.64,4.77-21.54,4.77s-21.54-2.14-21.54-4.77,9.64-4.77,21.54-4.77S1772.22,1271.2,1772.22,1273.84Z" transform="translate(23.65 -240.41)"/><path class="cls-24" d="M1678.19,1277c.21,11.8-44.23,22.14-99.26,23.1s-99.79-7.81-100-19.61,44.24-22.13,99.26-23.09S1678,1265.21,1678.19,1277Z" transform="translate(23.65 -240.41)"/><path class="cls-25" d="M1488.74,1255.64c-6.66,6.22-2.71,10.3,1.26,13s61.58,7.92,61.58,7.92l126.81-4s-60.59-77.5-67.82-76.3-30.34,21-30.34,21l-39,13L1509,1249.67S1495.4,1249.43,1488.74,1255.64Z" transform="translate(23.65 -240.41)"/><path class="cls-26" d="M1678.39,1272.62c.38-2.28-35.82-45.68-41.34-51.71s-23.43-25.67-26.48-24.59,4.34,21.92,4.34,21.92l-23.6,25-29.62,7.94s-33,22.06-25.6,23.85c8.34,2,44.18,4.25,70.41,4C1649.16,1278.72,1678,1274.89,1678.39,1272.62Z" transform="translate(23.65 -240.41)"/><path class="cls-27" d="M1670.78,1273.63l-37.57-45.52s-3.37-1.92-3.85,1.69-8.19,16.85-8.19,16.85l-14.45,8.92s-18.79,8.17-21.91,18.06C1580.67,1286.71,1674.34,1277.94,1670.78,1273.63Z" transform="translate(23.65 -240.41)"/><path class="cls-24" d="M1745.76,1273.91c0,5.27-13.3,9.55-29.7,9.55s-29.7-4.28-29.7-9.55,13.29-9.55,29.7-9.55S1745.76,1268.64,1745.76,1273.91Z" transform="translate(23.65 -240.41)"/><path class="cls-26" d="M1690.33,1270.5c8.13,4,55.83,4.47,55.43.94s1.4-7.69-10.64-14-21.19-15-23.12-17.6S1675,1263,1690.33,1270.5Z" transform="translate(23.65 -240.41)"/><path class="cls-27" d="M1742.52,1273.44s-6.59-8-12.5-10.1-12.15-10.39-17-8.66-8.36,16.88-4.51,18.76S1742.52,1273.44,1742.52,1273.44Z" transform="translate(23.65 -240.41)"/><polygon class="cls-28" points="767.86 625.02 2081.22 625.02 2081.42 736.5 1000.59 676.31 767.86 625.02"/><polygon class="cls-5" points="655.72 1102.15 620.17 995.49 574.38 1024.63 602.45 1137.95 626.6 1137.95 655.72 1102.15"/><polygon class="cls-6" points="468.77 261.22 484.41 663.43 529.34 682.85 468.77 261.22"/><polygon class="cls-5" points="528.79 679 548.45 682.69 468.77 261.22 528.79 679"/><polygon class="cls-7" points="468.77 261.22 436.48 627.06 484.41 663.43 468.77 261.22"/><polygon class="cls-7" points="449.94 637.27 413.64 857.81 490.83 908.15 484.41 660.49 449.94 637.27"/><polygon class="cls-6" points="558.46 920.55 490.75 907.85 484.41 663.43 516.15 676.92 558.46 920.55"/><polygon class="cls-6" points="490.83 905.03 492.95 1027.13 574.38 1024.63 558.46 920.55 490.83 905.03"/><polygon class="cls-6" points="574.38 1024.63 492.95 1027.13 477.15 1137.95 602.45 1137.95 574.38 1024.63"/><polygon class="cls-7" points="418.58 861.04 392.44 983.13 495.07 1029.64 490.83 905.03 418.58 861.04"/><polygon class="cls-7" points="495.07 1029.64 409.95 990.97 375.06 1117.72 404.71 1137.95 477.88 1137.95 495.07 1029.64"/><polygon class="cls-7" points="386.31 1124.04 382.56 1137.95 406.23 1137.95 386.31 1124.04"/><polygon class="cls-5" points="652.62 1106.69 626.85 1137.95 660.96 1137.95 652.62 1106.69"/><polygon class="cls-5" points="516.15 676.92 541.62 681.1 591.83 904.84 558.46 920.55 516.15 676.92"/><polygon class="cls-5" points="558.46 920.55 574.38 1024.63 622.36 993.27 591.1 901.59 558.46 920.55"/><polygon class="cls-8" points="449.94 637.27 484.41 660.49 516.15 676.92 541.62 681.1 544.45 693.69 519.53 696.41 484.41 686.51 447.76 650.52 449.94 637.27"/><polygon class="cls-8" points="418.58 861.04 490.83 905.03 558.46 920.55 591.1 901.59 595.2 913.59 560.98 937.01 490.31 933.35 416.55 869.78 418.58 861.04"/><polygon class="cls-8" points="409.95 990.97 495.07 1027.07 574.38 1024.63 620.17 995.49 623.89 1007.39 578.36 1040.69 491.52 1052.03 407.64 999.36 409.95 990.97"/><polygon class="cls-8" points="386 1125.19 383.68 1133.78 388.81 1137.95 404.71 1137.95 386 1125.19"/><polygon class="cls-8" points="655.72 1118.29 652.73 1106.88 626.96 1137.95 641.8 1137.95 655.72 1118.29"/><path class="cls-22" d="M-23,1161.41v243.72H721.49c17.34-1.44,46.08-3.08,27.29-24.75-14.45-18.79-57.8-10.12-78-14.45,44.8-26-56.35-26-69.35-26,8.67-2.89,7.22-5.78,10.11-13-30.34-17.33-70.8-11.55-102.59-21.67,40.46-33.23-52-36.12-73.69-40.46,54.91-26-18.79-13-30.35-23.12-8.67-8.67,2.89-18.78-18.78-26-15.9-5.78-33.23,0-49.13,0l8.67-4.33c-33.61-20.26-49.13,5.78-72.25,1.44-1.44-15.89,13-28.9,15.9-44.79-18.79,7.22-26,40.46-44.8,39-10.11-1.44-15.06-22.2-18.78,0-1.22,7.27,1.44,13,4.33,18.79-15.89-11.56-15.89-26-33.23-36.13-13-8.67-37.57-11.56-7.22-24.56-5.78-2.89-14.45,0-21.68,5.78,4.34-7.22,7.23-14.45,10.12-21.67-11.56,2.89-23.12,10.11-24.57,23.12-7.22-10.12-17.34-24.57-30.34-23.12,8.33,6,7.22,14.45,10.11,20.23-11.56-14.45-34.68-10.12-49.13-20.23,2.89-1.45,5.78-4.34,8.67-5.78-5.78,2.89-10.11,1.44-17.33,2.89,4.33-2.89,10.11-8.67,14.44-11.56-21.67-5.78-91,8.67-102.59,28.9Z" transform="translate(23.65 -240.41)"/><path class="cls-8" d="M-23,1238.14c20.23,2.13,46.24-13.83,66.47-19.14,23.12-6.38,40.46-7.45,63.58,3.19,41.42,22.33,67.43,55.31,116.56,53.18,16.37-1.07,50.09-17,63.58-5.32,6.74,5.32,6.74,20.21,13.48,28.71,8.67,10.64,23.12,19.15,35.64,22.34,22.16,5.32,46.24-1.06,68.4-4.25,7.71-1.07,31.79-8.51,38.53,0,6.74,9.57-8.67,21.27,3.85,30.84,11.56,9.57,48.17,1.06,63.58,4.25,17.34,2.13,46.82,8.55,57.8,23.4,24.68,33.38-96.33,29.78-114.63,29.78H-23v-167" transform="translate(23.65 -240.41)"/><path class="cls-21" d="M78.05,1405.12S197.49,1289,297,1317.08L177,1365.49Z" transform="translate(23.65 -240.41)"/><path class="cls-20" d="M78.05,1405.12l218.92-88s-5.06,28.9-99,61.17S78.05,1405.12,78.05,1405.12Z" transform="translate(23.65 -240.41)"/><path class="cls-21" d="M158,1214.49s-82.86,61.57-89.33,190.63h9.37s-14.67-61.76,48.65-152.58C134.8,1240.92,158,1214.49,158,1214.49Z" transform="translate(23.65 -240.41)"/><path class="cls-21" d="M490.27,1214.49s-82.86,61.57-89.33,190.63h9.37s-14.67-61.76,48.65-152.58C467.06,1240.92,490.27,1214.49,490.27,1214.49Z" transform="translate(23.65 -240.41)"/><path class="cls-20" d="M344.38,1241.8s70.88,52.67,76.4,163.06h-8s12.55-52.83-41.61-130.51C364.23,1264.41,344.38,1241.8,344.38,1241.8Z" transform="translate(23.65 -240.41)"/><path class="cls-20" d="M-9,1241.8s70.88,52.67,76.41,163.06h-8S72,1352,17.79,1274.35C10.86,1264.41-9,1241.8-9,1241.8Z" transform="translate(23.65 -240.41)"/><path class="cls-21" d="M453.91,1314.71c5.18-7.44,20-24.34,20-24.34s-50,37.19-56.65,115H422C421.2,1391.65,423.4,1358.46,453.91,1314.71Z" transform="translate(23.65 -240.41)"/><path class="cls-20" d="M357.68,1313.89c-5.18-7.44-20-24.34-20-24.34s50,37.19,56.64,115h-4.69C390.38,1390.83,388.18,1357.64,357.68,1313.89Z" transform="translate(23.65 -240.41)"/><path class="cls-20" d="M5.59,1314.12c-5.18-7.43-20-24.34-20-24.34s50,37.19,56.65,115H37.53C38.3,1391.07,36.1,1357.87,5.59,1314.12Z" transform="translate(23.65 -240.41)"/><path class="cls-21" d="M1953.2,1241.8s70.88,52.67,76.41,163.06h-8s12.55-52.83-41.61-130.51C1973.05,1264.41,1953.2,1241.8,1953.2,1241.8Z" transform="translate(23.65 -240.41)"/><path class="cls-20" d="M1967.78,1314.12c-5.18-7.43-20-24.34-20-24.34s50,37.19,56.65,115h-4.69C2000.48,1391.07,1998.28,1357.87,1967.78,1314.12Z" transform="translate(23.65 -240.41)"/><path class="cls-20" d="M471.14,1344.54l-38.75,60.84h15.8C463.71,1386.91,484.58,1357.28,471.14,1344.54Z" transform="translate(23.65 -240.41)"/><path class="cls-21" d="M471.18,1344.32c-25.67-8.22-49.32,55.17-51.45,61.06h12.56Z" transform="translate(23.65 -240.41)"/><path class="cls-20" d="M379.06,1362.4c-9.52,9,5.83,30.29,16.63,43h10.75Z" transform="translate(23.65 -240.41)"/><path class="cls-21" d="M414.76,1404.83s-17.11-48.54-35.73-42.58l27.47,43.13h7.75Z" transform="translate(23.65 -240.41)"/><path class="cls-20" d="M351.23,1370c-11.38-7.63,21.86,28.16,28.65,35.43h6C381.82,1400.09,365.55,1379.56,351.23,1370Z" transform="translate(23.65 -240.41)"/><path class="cls-21" d="M63.4,1313.93c5.18-7.43,20-24.33,20-24.33s-50,37.18-56.65,115h4.69C30.69,1390.88,32.89,1357.68,63.4,1313.93Z" transform="translate(23.65 -240.41)"/><path class="cls-20" d="M80.63,1343.77,41.88,1404.6h15.8C73.21,1386.14,94.08,1356.51,80.63,1343.77Z" transform="translate(23.65 -240.41)"/><path class="cls-21" d="M80.67,1343.55c-25.66-8.23-49.32,55.16-51.45,61H41.79Z" transform="translate(23.65 -240.41)"/><path class="cls-20" d="M-11.44,1361.63c-9.53,9,5.82,30.28,16.62,43H15.93Z" transform="translate(23.65 -240.41)"/><path class="cls-21" d="M24.25,1404.06s-17.1-48.55-35.72-42.58L16,1404.6h7.75Z" transform="translate(23.65 -240.41)"/><path class="cls-29" d="M2056.33,1052.66v-19.31l-115-8.57,115-16.87V995.46l-154.8-14s111.09-17.34,106.11-17.34-119.38-20.23-119.38-20.23l73-18.79-61.35-21.67,127.67-18.78L2001,870.17l2.72-4.74-45.83.4,24.87,13-263.63,20.23L1800.39,915H1614.68l-51.4,13,58,14.45-346.54,10.12,285.08,24.94s-233.93,13.81-229,23.78c5.22,10.45,173.23,29.2,144.26,24.49,0,0,108,12.43,54.29,17-108.73,9.17-336.44-4.2-321,4.56,23,13.1,311.15,25.69,311.15,25.69s-162.13,34-137.26,34.08,189,9.35,189,9.35l-84.47,26.92L1748,1162l290.2-14.83-95.49-30.8,113.6-8.06v-26.09L1893,1052.66Z" transform="translate(23.65 -240.41)"/><path class="cls-21" d="M78.21,1405.1l93.06-136.68s-17.82-3.38-36.6,16.85S80.13,1373.79,78.21,1405.1Z" transform="translate(23.65 -240.41)"/><path class="cls-20" d="M78.05,1405s40.74-36,61.76-63.48c22.15-29,33.71-40,31.3-73.21Z" transform="translate(23.65 -240.41)"/><path class="cls-20" d="M72.27,1214.49s2.79,182.31-11.66,190.74l9.15-.11s12.63-159.35,4-212.92S72.27,1214.49,72.27,1214.49Z" transform="translate(23.65 -240.41)"/><path class="cls-20" d="M63.37,1155.25c-2.92-5.44-5.06-14.93-11.1-16.42-4.14,8.47,4.75,19.05,8.06,27.35-4.43-5.87-8.29-10-11.37-8.67-2.21,11.7,5.63,15.55,11.87,23.18-4-2.38-7.21-4.86-11.7-5.71.67,10,13.66,20.08,21.14,23.76-2.06-16.64-4.83-33.19-7.88-49.56A29.44,29.44,0,0,0,63.37,1155.25Z" transform="translate(23.65 -240.41)"/><path class="cls-21" d="M83.82,1167.38c-2.57,2.54-5.43,2.92-6.29,7.41.56-6.63,4.51-15.18,2.21-21.44-3.48,1.2-6,4.45-6.81,8.94-2.49-7.68-1.6-17.28-7.48-23-2.47,2.69-3.22,6.25-3.06,9.94,3,16.37,5.82,32.92,7.88,49.56.66.33,1.3.62,1.86.84l-.43-.33a1.43,1.43,0,0,1-1.2-.91l1.2.91C76.58,1199.7,90.42,1177.07,83.82,1167.38Z" transform="translate(23.65 -240.41)"/><path class="cls-20" d="M2032.6,1209.17s1.61,187.38-12.85,195.81h9.48s13.49-164.53,4.82-218.1S2032.6,1209.17,2032.6,1209.17Z" transform="translate(23.65 -240.41)"/><path class="cls-20" d="M2023.7,1149.93c-2.92-5.44-5.07-14.93-11.1-16.42-4.14,8.47,4.75,19,8.06,27.35-4.44-5.87-8.29-10-11.37-8.67-2.22,11.7,5.62,15.55,11.87,23.18-4-2.38-7.22-4.86-11.7-5.71.67,10,13.66,20.08,21.14,23.76-2.06-16.64-4.83-33.19-7.88-49.56A29.44,29.44,0,0,0,2023.7,1149.93Z" transform="translate(23.65 -240.41)"/><path class="cls-21" d="M2044.15,1162.06c-2.57,2.54-5.43,2.92-6.29,7.41.56-6.63,4.51-15.18,2.21-21.44-3.48,1.2-6,4.45-6.81,8.94-2.5-7.68-1.61-17.28-7.49-23-2.46,2.69-3.21,6.25-3,9.94,3,16.37,5.82,32.92,7.88,49.56.66.33,1.3.62,1.86.84l-.44-.33a1.43,1.43,0,0,1-1.19-.91l1.19.91C2036.91,1194.38,2050.75,1171.75,2044.15,1162.06Z" transform="translate(23.65 -240.41)"/><g class="cls-4"><path class="cls-30" d="M2040.19,845.22c-2.89-8.67-26-28.18-28.18-9.4-5.06-8.67-21.67-11.56-23.12.73-2.61-2.33-1.85-9.16-12-11.32-13-2.89-16.94-1.69-22,8.43-5.78-8.67-5.06-8.67-10.84-3.62-7.95,7.23,0,9.4-13,6.51-19.51-5.06-22.4-7.95-38.3,8.67-2.47-10.28-28.9-32.27-28.9-8.67-2.88-7.95-14.44-10.84-11.55-1.45-3.62-5.06-14.45-8-15.9-.72-2.89-3.61-18.78-4.34-25.28-2.89-4.34,1.44-8.68,7.22-11.57,8-5,.72-7.94-5.78-12.28,1.44-4.33-4.33-7.94-1.44-8.67,3.61-5.78-2.89-5.05,1.45-9.39,2.17-.72.72-5.06,2.17-7.22,2.89-7.23,2.89-12.29.72-15.9,9.39-5.78-8.67-15.17,2.89-5.78,6.51,4,1.32,273.46.2,317.41,0V840.69C2052.52,834,2044.5,832.73,2040.19,845.22Z" transform="translate(23.65 -240.41)"/></g><g class="cls-4"><path class="cls-30" d="M1708.29,845.22c-2.89-8.67-26-28.18-28.18-9.4-5-8.67-21.67-11.56-23.12.73-2.61-2.33-1.84-9.16-12-11.32-13-2.89-16.93-1.69-22,8.43C1617.26,825,1618,825,1612.2,830c-8,7.23,0,9.4-13,6.51-19.51-5.06-22.4-7.95-38.29,8.67-2.48-10.28-28.9-32.27-28.9-8.67-2.89-7.95-14.45-10.84-11.56-1.45-3.62-5.06-14.45-8-15.9-.72-2.89-3.61-18.78-4.34-25.28-2.89-4.34,1.44-8.67,7.22-11.56,8-5.06.72-8-5.78-12.29,1.44-4.33-4.33-7.94-1.44-8.67,3.61-5.78-2.89-5,1.45-9.39,2.17-.72.72-5,2.17-7.22,2.89-7.23,2.89-12.28.72-15.9,9.39-5.78-8.67-15.17,2.89-5.78,6.51,4,1.32,284,.17,327.91,0,0,0,2.46-5.49,1.46-8.1C1731.33,840.38,1712.6,832.73,1708.29,845.22Z" transform="translate(23.65 -240.41)"/></g><g class="cls-31"><g class="cls-4"><path class="cls-6" d="M2038.2,874.06c-2.89,5.58-26,18.13-28.17,6-5.06,5.58-21.68,7.44-23.12-.46-2.62,1.5-1.85,5.88-12,7.28-13,1.86-16.93,1.09-22-5.43-5.78,5.59-5.06,5.59-10.84,2.33-7.94-4.65,0-6-13-4.18-19.51,3.25-22.4,5.11-38.29-5.58-2.48,6.61-28.9,20.76-28.9,5.58-2.89,5.11-14.45,7-11.56.92-3.61,3.26-14.45,5.12-15.9.47-2.89,2.32-18.78,2.79-25.28,1.86-4.33-.93-8.67-4.65-11.56-5.11-5.06-.47-7.95,3.71-12.28-.93-4.34,2.79-7.95.93-8.67-2.33-5.78,1.86-5.06-.93-9.4-1.4-.72-.46-5-1.39-7.22-1.85-7.23-1.87-12.28-.47-15.9-6-5.78,5.58-15.17-1.86-5.78-4.19,4-.85,273.46-.13,317.42,0V877C2050.54,881.29,2042.51,882.09,2038.2,874.06Z" transform="translate(23.65 -240.41)"/></g><g class="cls-4"><path class="cls-6" d="M1706.3,874.06c-2.89,5.58-26,18.13-28.17,6-5.06,5.58-21.68,7.44-23.12-.46-2.62,1.5-1.85,5.88-12,7.28-13,1.86-16.93,1.09-22-5.43-5.78,5.59-5.06,5.59-10.84,2.33-7.94-4.65,0-6-13-4.18-19.51,3.25-22.4,5.11-38.29-5.58-2.48,6.61-28.9,20.76-28.9,5.58-2.89,5.11-14.45,7-11.56.92-3.61,3.26-14.45,5.12-15.89.47-2.89,2.32-18.79,2.79-25.29,1.86-4.33-.93-8.67-4.65-11.56-5.11-5.06-.47-8,3.71-12.28-.93-4.34,2.79-8,.93-8.67-2.33-5.78,1.86-5.06-.93-9.39-1.4-.73-.46-5.06-1.39-7.23-1.85-7.22-1.87-12.28-.47-15.89-6-5.78,5.58-15.18-1.86-5.78-4.19,4-.85,284-.11,327.91,0,0,0,2.45,3.53,1.45,5.21C1729.34,877.17,1710.61,882.09,1706.3,874.06Z" transform="translate(23.65 -240.41)"/></g></g><polygon class="cls-21" points="1724.8 678.21 1741.55 694.95 1833.63 694.95 1833.63 686.58 1724.8 678.21"/><rect class="cls-21" x="1735.68" y="915.48" width="19.37" height="3.66" transform="translate(676.37 2318.2) rotate(-84.07)"/><path class="cls-32" d="M1765,684.74l-22.45,222.75,48.61,2.75S1808.94,728.17,1765,684.74Z" transform="translate(23.65 -240.41)"/></g></svg>