<svg xmlns="http://www.w3.org/2000/svg" viewBox="0 0 5643.18 2440.72"><defs><style>.cls-1,.cls-3{fill:#b59490;}.cls-1{opacity:0.7;}.cls-2{fill:#dcc5af;}</style></defs><title>03-02</title><g id="Calque_1" data-name="Calque 1"><path class="cls-1" d="M-719.42,1184.07-422.7,867.29l299.94,252.64,525-515.5L1263,1419.2l385.23-258.57L2204.6,1649l250.75-81.39S3670,2707.11,3701.31,2734.25s-4419.62,67.82-4419.62,67.82Z" transform="translate(719.42 -404.93)"/><polygon class="cls-2" points="5506.46 1248.86 5179.56 907.36 4971.02 663.42 4790.65 468.28 4307.65 0 4414.26 240.95 4383.74 317.11 4428.83 385.41 4391.27 439.08 4395.19 536.58 4245.66 429.32 4313.3 668.37 4313.3 809.85 4428.56 1059.04 4231.56 985.48 4276.94 1317.16 4273.03 1570.92 4625.09 2440.72 5643.18 2417.76 5643.18 1297.64 5506.46 1248.86"/><polygon class="cls-3" points="4307.65 0 3828.57 400.05 3589.03 692.77 3414.31 765.95 1442.2 2386.79 2630.15 2411.67 4625.09 2440.72 4273.03 1570.92 4282.29 1307.47 4231.56 985.48 4428.56 1059.04 4313.3 809.85 4313.3 668.37 4245.66 429.32 4391.27 536.65 4391.27 439.08 4428.83 385.41 4383.74 317.11 4414.26 240.95 4307.65 0"/><polygon class="cls-2" points="296.71 457.27 596.65 709.92 660.59 1179.22 405.98 987.87 393 750.61 338.38 641.09 296.71 457.27"/><polygon class="cls-2" points="2367.64 750.61 2882.79 1202.79 2563.18 1465.47 2437.07 1321.98 2437.07 1179.22 2385.83 1146.01 2414.66 1027.27 2354.58 939.1 2385.83 864.49 2367.64 750.61"/><polygon class="cls-2" points="1121.68 194.42 1982.41 1009.19 1785.49 1426.18 1785.49 1605.9 1656.14 1532.05 1553.76 1465.47 1459.01 1081.54 1310.23 803.44 1254.28 504.97 1121.68 194.42"/></g></svg>