<svg xmlns="http://www.w3.org/2000/svg" viewBox="0 0 5643.18 1409.88"><defs><style>.cls-1,.cls-3{fill:#b59490;}.cls-1{opacity:0.7;}.cls-2{fill:#dcc5af;}</style></defs><title>03-bg-02</title><g id="Calque_1" data-name="Calque 1"><path class="cls-1" d="M-1644.54,351l296.71-183L-1047.89,314l525-297.78L337.87,486.84,723.1,337.48l556.37,282.1,250.76-47s1214.61,658.24,1246,673.91-4419.63,39.18-4419.63,39.18Z" transform="translate(1644.54 99.05)"/><polygon class="cls-2" points="5506.46 721.4 5179.56 524.13 4971.02 383.23 4790.65 270.5 4307.65 0 4414.26 139.19 4383.74 183.18 4428.83 222.63 4391.27 253.63 4395.19 309.95 4245.66 248 4313.3 386.08 4313.3 467.81 4428.56 611.75 4231.56 569.26 4276.94 760.85 4273.03 907.44 4625.09 1409.88 5643.18 1396.62 5643.18 749.58 5506.46 721.4"/><polygon class="cls-3" points="4307.65 0 3828.57 231.09 3589.03 400.18 3414.31 442.45 1442.2 1378.72 2630.15 1393.1 4625.09 1409.88 4273.03 907.44 4282.29 755.26 4231.56 569.26 4428.56 611.75 4313.3 467.81 4313.3 386.08 4245.66 248 4391.27 309.99 4391.27 253.63 4428.83 222.63 4383.74 183.18 4414.26 139.19 4307.65 0"/><polygon class="cls-2" points="296.71 264.14 596.65 410.08 660.59 681.17 405.98 570.64 393 433.59 338.38 370.33 296.71 264.14"/><polygon class="cls-2" points="2367.64 433.59 2882.79 694.79 2563.18 846.53 2437.07 763.64 2437.07 681.17 2385.83 661.99 2414.66 593.4 2354.58 542.47 2385.83 499.37 2367.64 433.59"/><polygon class="cls-2" points="1121.68 112.31 1982.41 582.96 1785.49 823.83 1785.49 927.65 1656.14 884.98 1553.76 846.53 1459.01 624.75 1310.23 464.11 1254.28 291.69 1121.68 112.31"/></g></svg>