<svg version="1.1" viewBox="0.0 0.0 960.0 720.0" fill="none" stroke="none" stroke-linecap="square" stroke-miterlimit="10" xmlns:xlink="http://www.w3.org/1999/xlink" xmlns="http://www.w3.org/2000/svg"><clipPath id="p.0"><path d="m0 0l960.0 0l0 720.0l-960.0 0l0 -720.0z" clip-rule="nonzero"/></clipPath><g clip-path="url(#p.0)"><path fill="#000000" fill-opacity="0.0" d="m0 0l960.0 0l0 720.0l-960.0 0z" fill-rule="evenodd"/><g mask="url(#mask-p.1)"><use xlink:href="#p.1" transform="matrix(1.0 0.0 0.0 -1.0 0.0 56.93438320209974)"/></g><defs><mask id="mask-p.1" maskUnits="userSpaceOnUse" x="7.892388451443567" y="22.46719160104987" width="25.732283464566933" height="25.732283464566926"><linearGradient gradientUnits="userSpaceOnUse" id="gradient-p.1" x1="13.892388451623521" y1="30.467141890319997" x2="13.892373538349982" y2="34.58684200655722"><stop offset="0%" stop-color="#ffffff" stop-opacity="1.0"/><stop offset="100%" stop-color="#ffffff" stop-opacity="0.0"/></linearGradient><rect fill="url(#gradient-p.1)" x="7.892388451443567" y="22.46719160104987" width="25.732283464566933" height="25.732283464566926"/></mask></defs><g id="p.1"><g filter="url(#shadowFilter-p.2)"><use xlink:href="#p.2" transform="matrix(1.0 0.0 0.0 1.0 0.0 2.0)"/></g><defs><filter id="shadowFilter-p.2" filterUnits="userSpaceOnUse"><feGaussianBlur in="SourceAlpha" stdDeviation="2.0" result="blur"/><feComponentTransfer in="blur" color-interpolation-filters="sRGB"><feFuncR type="linear" slope="0" intercept="0.0"/><feFuncG type="linear" slope="0" intercept="0.0"/><feFuncB type="linear" slope="0" intercept="0.0"/><feFuncA type="linear" slope="0.5" intercept="0"/></feComponentTransfer></filter></defs><g id="p.2"><path fill="#ffffff" d="m13.892388 19.60105l0 0c0 -3.7920647 3.0740767 -6.8661413 6.8661413 -6.8661413l0 0c1.8210144 0 3.5674438 0.72339535 4.855097 2.0110464c1.2876511 1.2876511 2.0110455 3.0340805 2.0110455 4.855095l0 0c0 3.7920666 -3.0740757 6.8661423 -6.8661423 6.8661423l0 0c-3.7920647 0 -6.8661413 -3.0740757 -6.8661413 -6.8661423z" fill-rule="evenodd"/></g></g></g></svg>